<svg xmlns="http://www.w3.org/2000/svg" width="66.513" height="64.3518" viewBox="0 0 66.513 64.3518"><title>Flight</title><g style="isolation:isolate"><g id="Layer_2" data-name="Layer 2"><g id="Layer_1-2" data-name="Layer 1"><polygon points="23.465 60.131 23.182 62.704 33.3 61.821 32.242 55.111 23.465 60.131" fill="#2658bc"/><path d="M43.0526,30.5225c.008,3.3834,1.2115,6.1241,2.6888,6.1207s2.6667-2.75,2.6587-6.1331a12.0547,12.0547,0,0,0-.54-3.6666c-.4913-1.4915-3.77-1.5207-4.2557-.0759A11.9465,11.9465,0,0,0,43.0526,30.5225Z" fill="#2658bc"/><ellipse cx="45.9149" cy="30.3082" rx="2.008" ry="3.4911" transform="translate(-8.471 38.6112) rotate(-42.1088)" opacity="0.11" style="mix-blend-mode:multiply"/><path d="M50.1928,32.668c.0078,3.3839,1.2115,6.124,2.6883,6.1208s2.6678-2.7492,2.66-6.133a12.0529,12.0529,0,0,0-.54-3.6665c-.4913-1.4915-3.77-1.521-4.2556-.0764A11.9166,11.9166,0,0,0,50.1928,32.668Z" fill="#2658bc"/><ellipse cx="52.8892" cy="33.4161" rx="2.008" ry="3.4911" transform="translate(-8.7547 44.09) rotate(-42.1088)" opacity="0.11" style="mix-blend-mode:multiply"/><polygon points="65.87 38.747 66.513 44.366 40.28 37.133 36.583 38.49 36.551 24.706 65.87 38.747" fill="#2658bc"/><polygon points="43.121 60.086 43.415 62.657 33.294 61.821 34.321 55.106 43.121 60.086" fill="#2658bc"/><path d="M23.3969,30.5679c.0078,3.3836-1.1834,6.13-2.6607,6.1331S18.057,33.9641,18.0492,30.58a12.0617,12.0617,0,0,1,.5227-3.669c.4849-1.4939,3.7629-1.5384,4.2547-.0958A11.9209,11.9209,0,0,1,23.3969,30.5679Z" fill="#2658bc"/><path d="M16.2664,32.7465c.008,3.3838-1.1834,6.1294-2.6594,6.133s-2.68-2.7368-2.6878-6.1206a12.0263,12.0263,0,0,1,.523-3.6687c.4842-1.4939,3.7623-1.5385,4.2547-.0961A11.9248,11.9248,0,0,1,16.2664,32.7465Z" fill="#2658bc"/><ellipse cx="13.529" cy="33.5069" rx="3.6048" ry="2.093" transform="translate(-21.3731 24.148) rotate(-53.0022)" opacity="0.11" style="mix-blend-mode:multiply"/><ellipse cx="20.4511" cy="30.58" rx="3.6048" ry="2.093" transform="translate(-16.279 28.5109) rotate(-53.0022)" opacity="0.11" style="mix-blend-mode:multiply"/><polygon points="0.618 38.897 0 44.52 26.2 37.165 29.903 38.505 29.872 24.722 0.618 38.897" fill="#2658bc"/><path d="M33.1574.2584l0-.0017-.002.0009L33.1518.2564V.2587c-1.2505.2817-3.52,3.0835-4.27,8.0555-.8518,5.6483.0324,14.0322.0531,22.9013.0386,16.6474,1.9727,30.2188,4.36,30.93l0,.003.0031-.0018.0029.0016v-.0027c2.3841-.7221,4.255-14.3022,4.2165-30.95-.0207-8.87.8266-17.257-.0529-22.9011C36.6918,3.3258,34.41.5342,33.1574.2584Z" fill="#fff" stroke="#d6d6d6" stroke-miterlimit="10" stroke-width="0.5"/><path d="M36.2632,7.6548c.4947.4176.7618.8143.7454.9156.02.1475-.3623-.1516-1.0551-.476A5.3127,5.3127,0,0,1,36.2632,7.6548Z" fill="#303435"/><path d="M35.14,7.3076c-.0367.1435-.0766.2869-.12.4285a6.4552,6.4552,0,0,0-.6513-.1634c.0109-.3024.0188-.6038.0136-.9065a4.6693,4.6693,0,0,1,.84.3155C35.1892,7.0912,35.1661,7.2041,35.14,7.3076Z" fill="#303435"/><path d="M35.2121,7.6327c.05-.1577.0822-.3834.146-.5849a5.0229,5.0229,0,0,1,.786.5089c-.1072.1314-.2039.2744-.2966.4108-.013.02-.0259.04-.04.06-.1927-.0856-.4079-.17-.6422-.2479C35.181,7.7317,35.1964,7.6827,35.2121,7.6327Z" fill="#303435"/><path d="M34.2222,6.6276c.0069.3052,0,.6118-.0122.9175a5.8623,5.8623,0,0,0-1.0253-.0809l-.0018-.95A4.45,4.45,0,0,1,34.2222,6.6276Z" fill="#303435"/><ellipse cx="36.8651" cy="13.0181" rx="0.2112" ry="0.4205" transform="translate(-0.0354 0.1006) rotate(-0.1562)" fill="#303435"/><ellipse cx="36.868" cy="14.2699" rx="0.2112" ry="0.4206" transform="translate(-0.0387 0.1003) rotate(-0.1558)" fill="#303435"/><ellipse cx="36.8709" cy="15.5218" rx="0.2112" ry="0.4207" transform="matrix(1, -0.0027, 0.0027, 1, -0.0419, 0.1)" fill="#303435"/><ellipse cx="36.8738" cy="16.7736" rx="0.2112" ry="0.4207" transform="translate(-0.0452 0.0997) rotate(-0.1548)" fill="#303435"/><ellipse cx="36.8767" cy="18.0254" rx="0.2112" ry="0.4208" transform="translate(-0.0484 0.0994) rotate(-0.1544)" fill="#303435"/><ellipse cx="36.8796" cy="19.2772" rx="0.2112" ry="0.4209" transform="translate(-0.0516 0.0991) rotate(-0.1539)" fill="#303435"/><ellipse cx="36.8825" cy="20.5291" rx="0.2112" ry="0.421" transform="translate(-0.0548 0.0988) rotate(-0.1534)" fill="#303435"/><ellipse cx="36.8854" cy="21.7809" rx="0.2112" ry="0.4211" transform="translate(-0.058 0.0985) rotate(-0.153)" fill="#303435"/><ellipse cx="36.8883" cy="23.0327" rx="0.2112" ry="0.4211" transform="translate(-0.0612 0.0983) rotate(-0.1525)" fill="#303435"/><ellipse cx="36.8911" cy="24.2846" rx="0.2112" ry="0.4212" transform="translate(-0.0643 0.098) rotate(-0.152)" fill="#303435"/><ellipse cx="36.8972" cy="26.8869" rx="0.211" ry="0.4209" transform="translate(-0.0475 0.0653) rotate(-0.1013)" fill="#303435"/><ellipse cx="36.9001" cy="28.1387" rx="0.211" ry="0.4209" transform="translate(-0.0524 0.0689) rotate(-0.1069)" fill="#303435"/><ellipse cx="36.903" cy="29.3905" rx="0.2111" ry="0.4209" transform="translate(-0.0577 0.0725) rotate(-0.1126)" fill="#303435"/><ellipse cx="36.9058" cy="30.6423" rx="0.2111" ry="0.4209" transform="translate(-0.0631 0.0762) rotate(-0.1182)" fill="#303435"/><ellipse cx="36.9087" cy="31.8941" rx="0.2111" ry="0.4209" transform="translate(-0.0688 0.0798) rotate(-0.1238)" fill="#303435"/><ellipse cx="36.9116" cy="33.146" rx="0.2111" ry="0.4209" transform="translate(-0.0748 0.0835) rotate(-0.1295)" fill="#303435"/><ellipse cx="36.9145" cy="34.3978" rx="0.2111" ry="0.4209" transform="translate(-0.081 0.0871) rotate(-0.1351)" fill="#303435"/><ellipse cx="36.9174" cy="35.6496" rx="0.2112" ry="0.421" transform="translate(-0.0875 0.0908) rotate(-0.1408)" fill="#303435"/><ellipse cx="36.9202" cy="36.9014" rx="0.2112" ry="0.421" transform="translate(-0.0942 0.0945) rotate(-0.1464)" fill="#303435"/><ellipse cx="36.9231" cy="38.1532" rx="0.2112" ry="0.421" transform="translate(-0.1011 0.0981) rotate(-0.152)" fill="#303435"/><ellipse cx="36.7188" cy="40.8835" rx="0.2105" ry="0.421" transform="matrix(1, -0.0028, 0.0028, 1, -0.1151, 0.1036)" fill="#303435"/><ellipse cx="36.6223" cy="42.4505" rx="0.2105" ry="0.421" transform="translate(-0.1142 0.0988) rotate(-0.1543)" fill="#303435"/><ellipse cx="36.5257" cy="44.0176" rx="0.2104" ry="0.421" transform="translate(-0.1129 0.094) rotate(-0.1472)" fill="#303435"/><ellipse cx="36.4291" cy="45.5846" rx="0.2103" ry="0.421" transform="translate(-0.1113 0.0892) rotate(-0.14)" fill="#303435"/><ellipse cx="36.3326" cy="47.1517" rx="0.2103" ry="0.421" transform="translate(-0.1092 0.0844) rotate(-0.1329)" fill="#303435"/><ellipse cx="36.236" cy="48.7187" rx="0.2102" ry="0.4209" transform="matrix(1, -0.0022, 0.0022, 1, -0.1068, 0.0796)" fill="#303435"/><ellipse cx="36.1394" cy="50.2858" rx="0.2102" ry="0.4209" transform="translate(-0.1039 0.0749) rotate(-0.1185)" fill="#303435"/><path d="M33.2616,52.274l.01-.0031c.2842-.0008.52,2.7031.5277,6.04s-.2156,6.0406-.5,6.0412l-.01-.0029Z" fill="#2658bc"/><path d="M30.0811,7.669a2.1032,2.1032,0,0,0-.7418.919c-.0188.1479.3607-.153,1.0537-.4809C30.2945,7.9615,30.195,7.8076,30.0811,7.669Z" fill="#303435"/><path d="M31.2019,7.3167c.0375.1434.08.2863.1233.4282a6.2739,6.2739,0,0,1,.6506-.1666c-.0133-.3028-.0226-.6041-.02-.9065a4.7228,4.7228,0,0,0-.838.3192C31.151,7.1005,31.1761,7.2134,31.2019,7.3167Z" fill="#303435"/><path d="M31.1309,7.6422c-.05-.1577-.0837-.3829-.148-.5845a5.0985,5.0985,0,0,0-.7841.5129c.1084.131.2051.2731.3.4093.0131.02.0258.04.0394.06.1928-.0865.4072-.1719.6407-.2508Q31.1546,7.7168,31.1309,7.6422Z" fill="#303435"/><path d="M32.1173,6.6323c-.0064.3053.0031.6118.0161.9174a5.8948,5.8948,0,0,1,1.0246-.0855l-.0022-.95A4.4494,4.4494,0,0,0,32.1173,6.6323Z" fill="#303435"/><ellipse cx="29.5034" cy="13.0352" rx="0.2102" ry="0.4206" transform="translate(-0.0379 0.0862) rotate(-0.1673)" fill="#303435"/><ellipse cx="29.5062" cy="14.287" rx="0.2102" ry="0.4207" transform="translate(-0.0409 0.0848) rotate(-0.1645)" fill="#303435"/><ellipse cx="29.5091" cy="15.5389" rx="0.2102" ry="0.4207" transform="translate(-0.0437 0.0833) rotate(-0.1616)" fill="#303435"/><ellipse cx="29.512" cy="16.7907" rx="0.2102" ry="0.4208" transform="translate(-0.0464 0.0818) rotate(-0.1587)" fill="#303435"/><ellipse cx="29.5149" cy="18.0425" rx="0.2102" ry="0.4208" transform="translate(-0.049 0.0803) rotate(-0.1558)" fill="#303435"/><ellipse cx="29.5178" cy="19.2943" rx="0.2102" ry="0.4209" transform="translate(-0.0514 0.0789) rotate(-0.153)" fill="#303435"/><ellipse cx="29.5207" cy="20.5462" rx="0.2102" ry="0.4209" transform="translate(-0.0537 0.0774) rotate(-0.1501)" fill="#303435"/><ellipse cx="29.5235" cy="21.798" rx="0.2102" ry="0.421" transform="matrix(1, -0.0026, 0.0026, 1, -0.0559, 0.0759)" fill="#303435"/><ellipse cx="29.5264" cy="23.0498" rx="0.2102" ry="0.421" transform="translate(-0.058 0.0745) rotate(-0.1443)" fill="#303435"/><ellipse cx="29.5293" cy="24.3016" rx="0.2103" ry="0.4211" transform="translate(-0.0599 0.073) rotate(-0.1415)" fill="#303435"/><ellipse cx="29.5354" cy="26.9038" rx="0.2103" ry="0.4207" transform="translate(-0.0663 0.073) rotate(-0.1415)" fill="#303435"/><ellipse cx="29.5383" cy="28.1557" rx="0.2102" ry="0.4208" transform="matrix(1, -0.0024, 0.0024, 1, -0.0682, 0.0717)" fill="#303435"/><ellipse cx="29.5412" cy="29.4075" rx="0.2102" ry="0.4208" transform="translate(-0.0699 0.0704) rotate(-0.1364)" fill="#303435"/><ellipse cx="29.5441" cy="30.6593" rx="0.2102" ry="0.4208" transform="translate(-0.0716 0.0691) rotate(-0.1339)" fill="#303435"/><ellipse cx="29.547" cy="31.9111" rx="0.2102" ry="0.4208" transform="translate(-0.0731 0.0679) rotate(-0.1314)" fill="#303435"/><ellipse cx="29.5499" cy="33.1629" rx="0.2102" ry="0.4209" transform="translate(-0.0745 0.0666) rotate(-0.1289)" fill="#303435"/><ellipse cx="29.5528" cy="34.4147" rx="0.2102" ry="0.4209" transform="translate(-0.0758 0.0653) rotate(-0.1264)" fill="#303435"/><ellipse cx="29.5557" cy="35.6665" rx="0.2102" ry="0.4209" transform="translate(-0.077 0.064) rotate(-0.1239)" fill="#303435"/><ellipse cx="29.5586" cy="36.9184" rx="0.2102" ry="0.4209" transform="translate(-0.0781 0.0627) rotate(-0.1214)" fill="#303435"/><ellipse cx="29.5615" cy="38.1702" rx="0.2102" ry="0.4209" transform="translate(-0.0791 0.0614) rotate(-0.1188)" fill="#303435"/><ellipse cx="29.7785" cy="40.8995" rx="0.2108" ry="0.4211" transform="translate(-0.0954 0.0696) rotate(-0.1338)" fill="#303435"/><ellipse cx="29.8823" cy="42.4661" rx="0.2107" ry="0.421" transform="translate(-0.1025 0.0723) rotate(-0.1384)" fill="#303435"/><ellipse cx="29.9861" cy="44.0327" rx="0.2107" ry="0.421" transform="translate(-0.1099 0.075) rotate(-0.1431)" fill="#303435"/><ellipse cx="30.0898" cy="45.5993" rx="0.2107" ry="0.421" transform="translate(-0.1175 0.0778) rotate(-0.1478)" fill="#303435"/><ellipse cx="30.1936" cy="47.1659" rx="0.2106" ry="0.4209" transform="translate(-0.1254 0.0805) rotate(-0.1525)" fill="#303435"/><ellipse cx="30.2974" cy="48.7325" rx="0.2106" ry="0.4209" transform="matrix(1, -0.0027, 0.0027, 1, -0.1335, 0.0833)" fill="#303435"/><ellipse cx="30.4011" cy="50.2991" rx="0.2105" ry="0.4208" transform="translate(-0.1419 0.0861) rotate(-0.1618)" fill="#303435"/><path d="M33.2884,52.2739c-.0038-.0006-.0068-.0032-.0108-.0031-.2833.0006-.5075,2.7057-.5,6.0423s.2444,6.0394.5278,6.0387c.004,0,.0067-.0024.0109-.0029Z" fill="#2658bc"/><polygon points="37.608 25.213 40.959 26.817 40.983 37.467 40.28 37.133 37.42 38.152 37.608 25.213" fill="#c6c9ca" style="mix-blend-mode:multiply"/><path d="M37.1167,8.4551c.8793,5.6443.0323,14.0318.0529,22.9012.0386,16.6611-1.8355,30.2513-4.2223,30.9525L32.8043.4171C34.0555.6863,36.3433,3.4793,37.1167,8.4551Z" fill="#f2f2f0" style="mix-blend-mode:multiply"/></g></g></g></svg>