<?xml version="1.0" encoding="utf-8"?>
<!-- Generator: Adobe Illustrator 22.1.0, SVG Export Plug-In . SVG Version: 6.00 Build 0)  -->
<svg version="1.1" id="Layer_1" xmlns="http://www.w3.org/2000/svg" xmlns:xlink="http://www.w3.org/1999/xlink" x="0px" y="0px"
	 viewBox="0 0 606 92" style="enable-background:new 0 0 606 92;" xml:space="preserve">
<style type="text/css">
	.st0{clip-path:url(#SVGID_2_);}
	.st1{opacity:0.45;}
	.st2{fill:#C63837;}
	.st3{fill:#682323;}
	.st4{fill:#F4E52A;}
	.st5{fill:#F2E0E1;}
	.st6{opacity:0.1;}
	.st7{fill:#FFFFFF;}
	.st8{opacity:0.16;}
	.st9{fill:#F26122;}
	.st10{fill:#AF3F97;}
	.st11{fill:#DA9E24;}
	.st12{opacity:0.19;enable-background:new    ;}
	.st13{fill:#38343C;}
	.st14{fill:#2658BC;}
	.st15{fill:#3E62BA;}
	.st16{fill:#D1D1D1;}
	.st17{fill:#171619;}
	.st18{fill:#874D20;}
	.st19{fill:#BA9052;}
	.st20{fill:#B1CD3E;}
	.st21{fill:#A3BC3B;}
	.st22{fill:#7E9822;}
	.st23{fill:#677C0F;}
	.st24{filter:url(#Adobe_OpacityMaskFilter);}
	.st25{mask:url(#mask_1_);}
	.st26{fill:#A87419;}
</style>
<title>Legends</title>
<g id="Layer_2_1_">
	<g id="Layer_1-2">
		<g>
			<defs>
				<rect id="SVGID_1_" y="0" width="606" height="92"/>
			</defs>
			<clipPath id="SVGID_2_">
				<use xlink:href="#SVGID_1_"  style="overflow:visible;"/>
			</clipPath>
			<g class="st0">
				<g class="st1">
					<path d="M11.1,0h583.9C601,0,606,5,606,11.1v69.9c0,6.1-5,11.1-11.1,11.1H11.1C5,92,0,87,0,80.9V11.1C0,5,5,0,11.1,0z"/>
				</g>
				<path class="st2" d="M446.1,33l0-4.9c0-3.3,0-4.2-4.3-4.1l-27.6,0.3c-1.2,0-2.2,1-2.2,2.2l0,0l0,4.4l0,4.4c0,1.2,1,2.2,2.2,2.2
					l0,0l27.6-0.4C446.1,37.1,446.1,36.3,446.1,33z"/>
				<path class="st3" d="M411.8,26.5c0-1.3,1-2.4,2.3-2.4l27.6-0.3c2.1,0,3.1,0.2,3.7,0.7c0.7,0.7,0.7,1.7,0.7,3.5l0,4.9l-0.1,0
					l0.1,0l0,0l-0.1,0l0.1,0c0,3.3,0.1,4.3-4.3,4.4l-27.6,0.4c-1.3,0-2.4-1-2.4-2.3L411.8,26.5L411.8,26.5z M445.9,28
					c0-1.7,0-2.8-0.6-3.3c-0.5-0.5-1.5-0.7-3.5-0.6l-27.6,0.3c-1.1,0-2,0.9-2,2.1v0l0.1,8.9c0,1.1,0.9,2.1,2.1,2c0,0,0,0,0,0
					l27.6-0.4c4.1-0.1,4.1-0.7,4-4.1L445.9,28z"/>
				
					<ellipse transform="matrix(0.9999 -1.236011e-02 1.236011e-02 0.9999 -0.2886 5.5056)" class="st4" cx="445.3" cy="26.1" rx="0.2" ry="0.6"/>
				<path class="st5" d="M444.1,25.3c-0.5-0.6-1,0.1-1.4,0.4s-0.2,4.8-0.2,4.8l2.1,0C444.6,30.5,444.5,25.7,444.1,25.3z"/>
				<polygon class="st5" points="436.6,25.9 436.6,24.9 442.4,24.9 441.4,25.9 				"/>
				
					<rect x="431.8" y="25" transform="matrix(0.9999 -1.236011e-02 1.236011e-02 0.9999 -0.2816 5.3677)" class="st5" width="4.6" height="1"/>
				
					<rect x="427" y="25" transform="matrix(0.9999 -1.236011e-02 1.236011e-02 0.9999 -0.2827 5.308)" class="st5" width="4.6" height="1"/>
				
					<rect x="422.2" y="25.1" transform="matrix(0.9999 -1.236011e-02 1.236011e-02 0.9999 -0.2838 5.2486)" class="st5" width="4.6" height="1"/>
				
					<rect x="417.3" y="25.2" transform="matrix(0.9999 -1.236011e-02 1.236011e-02 0.9999 -0.2849 5.1886)" class="st5" width="4.6" height="1"/>
				<path class="st5" d="M414.1,26.2c0,0-0.2-0.1-0.4-1l3.4,0l0,1L414.1,26.2z"/>
				<path class="st5" d="M413.3,25.5c0,0.3,0.1,0.6,0.3,0.9c0.3,0.4,0.2,4.6,0.2,4.6l-1.1,0C412.6,30.9,412.4,26.2,413.3,25.5z"/>
				
					<ellipse transform="matrix(0.9999 -1.236011e-02 1.236011e-02 0.9999 -0.3976 5.5076)" class="st4" cx="445.4" cy="34.9" rx="0.2" ry="0.6"/>
				<path class="st5" d="M444.2,35.8c-0.5,0.6-1,0-1.4-0.4s-0.3-4.8-0.3-4.8l2.1,0C444.6,30.5,444.6,35.3,444.2,35.8z"/>
				<polygon class="st5" points="438,35.3 438,36.3 442.5,36.2 441.7,35.3 				"/>
				
					<rect x="430" y="35.4" transform="matrix(0.9999 -1.236011e-02 1.236011e-02 0.9999 -0.4102 5.3455)" class="st5" width="4.5" height="1"/>
				
					<rect x="425.2" y="35.4" transform="matrix(0.9999 -1.236011e-02 1.236011e-02 0.9999 -0.4113 5.2864)" class="st5" width="4.5" height="1"/>
				
					<rect x="420.5" y="35.5" transform="matrix(0.9999 -1.236011e-02 1.236011e-02 0.9999 -0.4124 5.2273)" class="st5" width="4.5" height="1"/>
				<path class="st5" d="M414.2,35.6c0,0-0.2,0.1-0.4,1l3.4,0l0-1L414.2,35.6z"/>
				
					<rect x="436.5" y="35.3" transform="matrix(0.9999 -1.236011e-02 1.236011e-02 0.9999 -0.4123 5.4048)" class="st5" width="1.1" height="1.5"/>
				
					<rect x="435.2" y="35.3" transform="matrix(0.9999 -1.236011e-02 1.236011e-02 0.9999 -0.4126 5.3883)" class="st5" width="1.1" height="1.5"/>
				
					<rect x="419.1" y="35.5" transform="matrix(0.9999 -1.236011e-02 1.236011e-02 0.9999 -0.4163 5.1896)" class="st5" width="1.1" height="1.5"/>
				
					<rect x="417.7" y="35.5" transform="matrix(0.9999 -1.236011e-02 1.236011e-02 0.9999 -0.4166 5.1732)" class="st5" width="1.1" height="1.5"/>
				<path class="st5" d="M413.4,36.3c0-0.3,0.1-0.6,0.2-0.9c0.3-0.4,0.1-4.6,0.1-4.6l-1.1,0C412.6,30.9,412.5,35.7,413.4,36.3z"/>
				<g class="st6">
					<path d="M435.7,28.9l1.3,0c0.3,0,0.6,0.3,0.6,0.6l0,2.3c0,0.3-0.3,0.6-0.6,0.6l-1.3,0c-0.3,0-0.6-0.3-0.6-0.6l0-2.3
						C435.1,29.1,435.4,28.9,435.7,28.9z"/>
				</g>
				<g class="st6">
					<path d="M427,29l1.3,0c0.3,0,0.6,0.3,0.6,0.6l0,2.3c0,0.3-0.3,0.6-0.6,0.6l-1.3,0c-0.3,0-0.6-0.3-0.6-0.6l0-2.3
						C426.4,29.2,426.7,29,427,29z"/>
				</g>
				<g class="st6">
					<path d="M418.3,29.1l1.3,0c0.3,0,0.6,0.3,0.6,0.6l0,2.3c0,0.3-0.3,0.6-0.6,0.6l-1.3,0c-0.3,0-0.6-0.3-0.6-0.6l0-2.3
						C417.7,29.4,418,29.1,418.3,29.1z"/>
				</g>
				
					<rect x="441.8" y="37.3" transform="matrix(0.9627 -0.2707 0.2707 0.9627 6.3509 121.0328)" class="st7" width="0.2" height="0.4"/>
				<path class="st7" d="M440.9,37.8l1.3-0.4l0,0l0.1,0.5l0,0l-1,0.3c-0.1,0.1-0.3,0-0.4-0.2l0,0L440.9,37.8L440.9,37.8z"/>
				
					<rect x="441.6" y="23.5" transform="matrix(0.3061 -0.952 0.952 0.3061 284.0811 436.9568)" class="st5" width="0.4" height="0.2"/>
				<path class="st5" d="M441.3,22.9l1,0.3l0,0l-0.1,0.5l0,0l-1.2-0.4l0,0l0.1-0.2C440.9,23,441.1,22.9,441.3,22.9L441.3,22.9z"/>
				<g class="st8">
					<path d="M446.2,30.5L446.2,30.5l0.1,4.3c0,1.3-1,2.3-2.3,2.4l-29.8,0.6c-1.2,0-2.2-0.9-2.3-2.1l0,0l-0.1-4.4"/>
				</g>
				<path class="st9" d="M411.7,26.7l0.1,0l0,0l0,1.8l0,0l-0.1,0c-0.1,0-0.2-0.1-0.2-0.2c0,0,0,0,0,0l0,0l0-1.3
					C411.4,26.8,411.5,26.7,411.7,26.7z"/>
				<path class="st9" d="M411.8,33.4l0.1,0l0,0l0,1.8l0,0l-0.1,0c-0.1,0-0.2-0.1-0.2-0.2c0,0,0,0,0,0l0-1.3
					C411.6,33.5,411.6,33.4,411.8,33.4C411.8,33.4,411.8,33.4,411.8,33.4z"/>
				<path class="st7" d="M414.7,52.3c0.4,0,0.8,0,1.2,0.1c0.3,0.1,0.6,0.2,0.8,0.4c0.2,0.2,0.4,0.4,0.5,0.6c0.1,0.3,0.2,0.5,0.1,0.8
					c0,0.2,0,0.3-0.1,0.5c-0.1,0.2-0.1,0.3-0.2,0.4c-0.1,0.1-0.2,0.3-0.4,0.4c-0.2,0.1-0.4,0.2-0.6,0.3c1,0.2,1.5,0.8,1.5,1.6
					c0,0.3-0.1,0.6-0.2,0.8c-0.1,0.3-0.3,0.5-0.5,0.7c-0.2,0.2-0.5,0.3-0.8,0.4c-0.4,0.1-0.7,0.2-1.1,0.2h-2.7v-7.2L414.7,52.3z
					 M413.6,53.3v2.1h1.1c0.4,0,0.7-0.1,1-0.2c0.2-0.2,0.4-0.5,0.4-0.8c0-0.3-0.1-0.6-0.3-0.8c-0.3-0.2-0.6-0.3-1-0.2L413.6,53.3z
					 M414.9,58.4c0.2,0,0.4,0,0.6-0.1c0.2,0,0.3-0.1,0.4-0.2c0.1-0.1,0.2-0.2,0.2-0.4c0-0.1,0.1-0.3,0.1-0.4c0-0.1,0-0.3-0.1-0.4
					c0-0.1-0.1-0.2-0.2-0.3c-0.1-0.1-0.3-0.2-0.4-0.2c-0.2-0.1-0.4-0.1-0.6-0.1h-1.4v2.1L414.9,58.4z"/>
				<path class="st7" d="M421.7,58.4c0.2,0,0.5,0,0.7-0.1c0.2-0.1,0.4-0.2,0.5-0.4c0.1-0.2,0.3-0.4,0.3-0.6c0.1-0.2,0.1-0.5,0.1-0.8
					v-4.3h1.3v4.3c0,0.4-0.1,0.8-0.2,1.2c-0.3,0.7-0.8,1.3-1.5,1.6c-0.8,0.3-1.7,0.3-2.5,0c-0.4-0.1-0.7-0.3-0.9-0.6
					c-0.3-0.3-0.5-0.6-0.6-0.9c-0.1-0.4-0.2-0.8-0.2-1.2v-4.3h1.3v4.3c0,0.3,0,0.5,0.1,0.8c0.1,0.2,0.2,0.4,0.3,0.6
					c0.1,0.2,0.3,0.3,0.5,0.4C421.3,58.4,421.5,58.4,421.7,58.4z"/>
				<path class="st7" d="M430.1,53.6c0,0.1-0.1,0.1-0.1,0.2c0,0-0.1,0.1-0.2,0c-0.1,0-0.2,0-0.2-0.1c-0.1-0.1-0.2-0.1-0.3-0.2
					c-0.1-0.1-0.3-0.1-0.4-0.2c-0.2-0.1-0.4-0.1-0.5-0.1c-0.2,0-0.3,0-0.5,0.1c-0.1,0-0.2,0.1-0.4,0.2c-0.1,0.1-0.2,0.2-0.2,0.3
					c0,0.1-0.1,0.2-0.1,0.4c0,0.2,0,0.3,0.1,0.4c0.1,0.1,0.2,0.2,0.4,0.3c0.2,0.1,0.4,0.2,0.5,0.2c0.2,0.1,0.4,0.1,0.6,0.2
					c0.2,0.1,0.4,0.2,0.6,0.2c0.2,0.1,0.4,0.2,0.5,0.4c0.2,0.2,0.3,0.3,0.4,0.5c0.1,0.2,0.1,0.5,0.1,0.8c0,0.3-0.1,0.6-0.2,0.9
					c-0.1,0.3-0.3,0.5-0.5,0.7c-0.2,0.2-0.5,0.4-0.8,0.5c-0.3,0.1-0.7,0.2-1.1,0.2c-0.2,0-0.5,0-0.7-0.1c-0.2,0-0.4-0.1-0.6-0.2
					c-0.2-0.1-0.4-0.2-0.6-0.3c-0.2-0.1-0.3-0.2-0.5-0.4l0.4-0.6c0,0,0.1-0.1,0.1-0.1c0.1,0,0.1,0,0.2,0c0.1,0,0.2,0,0.3,0.1
					c0.1,0.1,0.2,0.1,0.3,0.2c0.1,0.1,0.3,0.2,0.5,0.2c0.2,0.1,0.4,0.1,0.6,0.1c0.3,0,0.6-0.1,0.9-0.3c0.2-0.2,0.3-0.5,0.3-0.8
					c0-0.2,0-0.3-0.1-0.5c-0.1-0.1-0.2-0.2-0.4-0.3c-0.2-0.1-0.4-0.2-0.5-0.2c-0.2-0.1-0.4-0.1-0.6-0.2c-0.2-0.1-0.4-0.1-0.6-0.2
					c-0.2-0.1-0.4-0.2-0.5-0.4c-0.2-0.2-0.3-0.4-0.4-0.6c-0.1-0.3-0.2-0.5-0.1-0.8c0-0.3,0.1-0.5,0.2-0.8c0.1-0.3,0.3-0.5,0.5-0.7
					c0.2-0.2,0.5-0.4,0.7-0.5c0.3-0.1,0.7-0.2,1-0.2c0.4,0,0.8,0.1,1.2,0.2c0.3,0.1,0.7,0.3,0.9,0.6L430.1,53.6z"/>
				<path class="st7" d="M414.7,64.3c0.4,0,0.8,0,1.2,0.1c0.3,0.1,0.6,0.2,0.8,0.4c0.2,0.2,0.4,0.4,0.5,0.6c0.1,0.3,0.2,0.5,0.1,0.8
					c0,0.2,0,0.3-0.1,0.5c-0.1,0.2-0.1,0.3-0.2,0.4c-0.1,0.1-0.2,0.3-0.4,0.4c-0.2,0.1-0.4,0.2-0.6,0.3c1,0.2,1.5,0.8,1.5,1.6
					c0,0.3-0.1,0.6-0.2,0.8c-0.1,0.3-0.3,0.5-0.5,0.7c-0.2,0.2-0.5,0.3-0.8,0.4c-0.4,0.1-0.7,0.2-1.1,0.2h-2.7v-7.2L414.7,64.3z
					 M413.6,65.3v2.1h1.1c0.4,0,0.7-0.1,1-0.2c0.2-0.2,0.4-0.5,0.4-0.8c0-0.3-0.1-0.6-0.3-0.8c-0.3-0.2-0.6-0.3-1-0.2L413.6,65.3z
					 M414.9,70.4c0.2,0,0.4,0,0.6-0.1c0.2,0,0.3-0.1,0.4-0.2c0.1-0.1,0.2-0.2,0.2-0.4c0-0.1,0.1-0.3,0.1-0.4c0-0.1,0-0.3-0.1-0.4
					c0-0.1-0.1-0.2-0.2-0.3c-0.1-0.1-0.3-0.2-0.4-0.2c-0.2-0.1-0.4-0.1-0.6-0.1h-1.4v2.1L414.9,70.4z"/>
				<path class="st7" d="M425.7,67.9c0,0.5-0.1,1-0.3,1.5c-0.2,0.4-0.4,0.8-0.7,1.2c-0.3,0.3-0.7,0.6-1.2,0.8c-1,0.4-2,0.4-3,0
					c-0.4-0.2-0.8-0.4-1.2-0.8c-0.3-0.3-0.6-0.7-0.7-1.2c-0.4-0.9-0.4-2,0-2.9c0.2-0.4,0.4-0.8,0.7-1.2c0.3-0.3,0.7-0.6,1.2-0.8
					c0.5-0.2,1-0.3,1.5-0.3c0.3,0,0.7,0,1,0.1c0.3,0.1,0.6,0.2,0.9,0.4c0.3,0.2,0.5,0.3,0.7,0.6c0.2,0.2,0.4,0.5,0.5,0.7
					c0.2,0.3,0.3,0.6,0.3,0.9C425.7,67.2,425.7,67.5,425.7,67.9z M424.3,67.9c0-0.4,0-0.7-0.2-1.1c-0.1-0.3-0.3-0.6-0.5-0.8
					c-0.2-0.2-0.4-0.4-0.7-0.5c-0.6-0.2-1.3-0.2-1.9,0c-0.3,0.1-0.5,0.3-0.7,0.5c-0.2,0.2-0.4,0.5-0.5,0.8c-0.2,0.7-0.2,1.4,0,2.1
					c0.1,0.3,0.3,0.6,0.5,0.8c0.2,0.2,0.4,0.4,0.7,0.5c0.6,0.2,1.3,0.2,1.9,0c0.3-0.1,0.5-0.3,0.7-0.5c0.2-0.2,0.4-0.5,0.5-0.8
					C424.3,68.6,424.3,68.2,424.3,67.9L424.3,67.9z"/>
				<path class="st7" d="M433.8,67.9c0,0.5-0.1,1-0.3,1.5c-0.2,0.4-0.4,0.8-0.7,1.2c-0.3,0.3-0.7,0.6-1.2,0.8c-1,0.4-2,0.4-3,0
					c-0.4-0.2-0.8-0.4-1.2-0.8c-0.3-0.3-0.6-0.7-0.7-1.2c-0.4-0.9-0.4-2,0-2.9c0.2-0.4,0.4-0.8,0.7-1.2c0.3-0.3,0.7-0.6,1.2-0.8
					c0.5-0.2,1-0.3,1.5-0.3c0.3,0,0.7,0,1,0.1c0.3,0.1,0.6,0.2,0.9,0.4c0.3,0.2,0.5,0.3,0.7,0.6c0.2,0.2,0.4,0.5,0.5,0.7
					c0.2,0.3,0.3,0.6,0.3,0.9C433.8,67.2,433.8,67.5,433.8,67.9z M432.4,67.9c0-0.4,0-0.7-0.2-1.1c-0.1-0.3-0.3-0.6-0.5-0.8
					c-0.2-0.2-0.4-0.4-0.7-0.5c-0.6-0.2-1.3-0.2-1.9,0c-0.3,0.1-0.5,0.3-0.7,0.5c-0.2,0.2-0.4,0.5-0.5,0.8c-0.2,0.7-0.2,1.4,0,2.1
					c0.1,0.3,0.3,0.6,0.5,0.8c0.2,0.2,0.4,0.4,0.7,0.5c0.6,0.2,1.3,0.2,1.9,0c0.3-0.1,0.5-0.3,0.7-0.5c0.2-0.2,0.4-0.5,0.5-0.8
					C432.4,68.6,432.4,68.2,432.4,67.9L432.4,67.9z"/>
				<path class="st7" d="M436.3,67.3h0.3c0.1,0,0.2,0,0.3-0.1c0.1,0,0.2-0.1,0.2-0.2l2-2.5c0.1-0.1,0.2-0.2,0.3-0.2
					c0.1,0,0.2-0.1,0.3-0.1h1.2l-2.4,3c-0.1,0.2-0.3,0.3-0.4,0.4c0.1,0,0.2,0.1,0.3,0.2c0.1,0.1,0.2,0.2,0.3,0.3l2.5,3.4h-1.2
					c-0.1,0-0.2,0-0.4-0.1c-0.1,0-0.1-0.1-0.2-0.2l-2-2.7c-0.1-0.1-0.1-0.1-0.2-0.2c-0.1,0-0.2-0.1-0.4-0.1h-0.4v3.2H435v-7.2h1.3
					V67.3z"/>
				<path class="st7" d="M443.2,71.5h-1.4v-7.2h1.4V71.5z"/>
				<path class="st7" d="M450.9,64.3v7.2h-0.7c-0.2,0-0.4-0.1-0.5-0.2l-3.8-4.8c0,0.2,0,0.4,0,0.6v4.4h-1.2v-7.2h0.7
					c0,0,0.1,0,0.1,0c0,0,0.1,0,0.1,0c0,0,0.1,0,0.1,0.1c0,0,0.1,0.1,0.1,0.1l3.8,4.8c0-0.1,0-0.2,0-0.3c0-0.1,0-0.2,0-0.3v-4.4
					H450.9z"/>
				<path class="st7" d="M458.5,67.9v2.9c-0.4,0.3-0.8,0.5-1.2,0.6c-0.4,0.1-0.9,0.2-1.3,0.2c-0.5,0-1.1-0.1-1.6-0.3
					c-0.5-0.2-0.9-0.4-1.2-0.8c-0.3-0.3-0.6-0.7-0.8-1.2c-0.2-0.5-0.3-1-0.3-1.5c0-0.5,0.1-1,0.3-1.5c0.3-0.9,1-1.6,1.9-1.9
					c0.5-0.2,1-0.3,1.6-0.3c0.3,0,0.6,0,0.8,0.1c0.2,0,0.5,0.1,0.7,0.2c0.2,0.1,0.4,0.2,0.6,0.3c0.2,0.1,0.3,0.2,0.5,0.4l-0.4,0.6
					c-0.1,0.1-0.1,0.2-0.2,0.2c-0.1,0-0.2,0-0.3-0.1c-0.1-0.1-0.2-0.1-0.3-0.2c-0.1-0.1-0.2-0.1-0.4-0.2c-0.1-0.1-0.3-0.1-0.5-0.1
					c-0.2,0-0.4,0-0.6,0c-0.3,0-0.7,0.1-1,0.2c-0.3,0.1-0.5,0.3-0.7,0.5c-0.2,0.2-0.4,0.5-0.5,0.8c-0.1,0.3-0.2,0.7-0.2,1.1
					c0,0.4,0.1,0.8,0.2,1.1c0.1,0.3,0.3,0.6,0.5,0.8c0.2,0.2,0.5,0.4,0.8,0.5c0.6,0.2,1.2,0.2,1.7,0.1c0.2-0.1,0.4-0.1,0.6-0.2v-1.3
					h-0.9c-0.1,0-0.1,0-0.2-0.1c0,0-0.1-0.1-0.1-0.2v-0.8L458.5,67.9z"/>
				<path class="st7" d="M463.6,65.6c0,0.1-0.1,0.1-0.1,0.2c0,0-0.1,0.1-0.2,0c-0.1,0-0.2,0-0.2-0.1c-0.1-0.1-0.2-0.1-0.3-0.2
					c-0.1-0.1-0.3-0.1-0.4-0.2c-0.2-0.1-0.4-0.1-0.5-0.1c-0.2,0-0.3,0-0.5,0.1c-0.1,0-0.2,0.1-0.4,0.2c-0.1,0.1-0.2,0.2-0.2,0.3
					c0,0.1-0.1,0.2-0.1,0.4c0,0.2,0,0.3,0.1,0.4c0.1,0.1,0.2,0.2,0.4,0.3c0.2,0.1,0.4,0.2,0.5,0.2c0.2,0.1,0.4,0.1,0.6,0.2
					c0.2,0.1,0.4,0.2,0.6,0.2c0.2,0.1,0.4,0.2,0.5,0.4c0.2,0.2,0.3,0.3,0.4,0.5c0.1,0.2,0.2,0.5,0.1,0.8c0,0.3-0.1,0.6-0.2,0.9
					c-0.1,0.3-0.3,0.5-0.5,0.7c-0.2,0.2-0.5,0.4-0.8,0.5c-0.3,0.1-0.7,0.2-1.1,0.2c-0.2,0-0.5,0-0.7-0.1c-0.2,0-0.4-0.1-0.6-0.2
					c-0.2-0.1-0.4-0.2-0.6-0.3c-0.2-0.1-0.3-0.2-0.5-0.4l0.4-0.6c0,0,0.1-0.1,0.1-0.1c0.1,0,0.1,0,0.2,0c0.1,0,0.2,0,0.3,0.1
					c0.1,0.1,0.2,0.1,0.3,0.2c0.1,0.1,0.3,0.2,0.5,0.2c0.2,0.1,0.4,0.1,0.6,0.1c0.3,0,0.6-0.1,0.9-0.3c0.2-0.2,0.3-0.5,0.3-0.8
					c0-0.2,0-0.3-0.1-0.5c-0.1-0.1-0.2-0.2-0.4-0.3c-0.2-0.1-0.4-0.2-0.5-0.2c-0.2-0.1-0.4-0.1-0.6-0.2c-0.2-0.1-0.4-0.1-0.6-0.2
					c-0.2-0.1-0.4-0.2-0.5-0.4c-0.2-0.2-0.3-0.4-0.4-0.6c-0.1-0.3-0.2-0.5-0.1-0.8c0-0.5,0.2-1.1,0.6-1.4c0.2-0.2,0.5-0.4,0.7-0.5
					c0.3-0.1,0.7-0.2,1-0.2c0.4,0,0.8,0.1,1.2,0.2c0.3,0.1,0.7,0.3,0.9,0.6L463.6,65.6z"/>
				<path class="st7" d="M127.3,52.3v7.2H126v-3.2h-3.4v3.2h-1.3v-7.2h1.3v3.1h3.4v-3.1H127.3z"/>
				<path class="st7" d="M135.8,55.9c0,0.5-0.1,1-0.3,1.5c-0.2,0.4-0.4,0.8-0.7,1.2c-0.3,0.3-0.7,0.6-1.2,0.8c-1,0.4-2,0.4-3,0
					c-0.4-0.2-0.8-0.4-1.2-0.8c-0.3-0.3-0.6-0.7-0.7-1.2c-0.4-1-0.4-2,0-2.9c0.2-0.4,0.4-0.8,0.7-1.2c0.3-0.3,0.7-0.6,1.2-0.8
					c0.5-0.2,1-0.3,1.5-0.3c0.3,0,0.7,0,1,0.1c0.3,0.1,0.6,0.2,0.9,0.4c0.3,0.2,0.5,0.3,0.7,0.6c0.2,0.2,0.4,0.5,0.5,0.7
					c0.2,0.3,0.3,0.6,0.3,0.9C135.8,55.2,135.8,55.5,135.8,55.9z M134.5,55.9c0-0.4,0-0.7-0.2-1.1c-0.1-0.3-0.3-0.6-0.5-0.8
					c-0.2-0.2-0.4-0.4-0.7-0.5c-0.6-0.2-1.3-0.2-1.9,0c-0.3,0.1-0.5,0.3-0.7,0.5c-0.2,0.2-0.4,0.5-0.5,0.8c-0.2,0.7-0.2,1.4,0,2.1
					c0.1,0.3,0.3,0.6,0.5,0.8c0.2,0.2,0.4,0.4,0.7,0.5c0.6,0.2,1.3,0.2,1.9,0c0.3-0.1,0.5-0.3,0.7-0.5c0.2-0.2,0.4-0.5,0.5-0.8
					C134.4,56.6,134.5,56.2,134.5,55.9L134.5,55.9z"/>
				<path class="st7" d="M141.8,53.4h-2.2v6.1h-1.3v-6.1h-2.2v-1.1h5.7V53.4z"/>
				<path class="st7" d="M144.1,53.3v2h2.5v1h-2.5v2h3.2v1.1h-4.6v-7.2h4.6v1.1L144.1,53.3z"/>
				<path class="st7" d="M152.8,58.4v1.1h-4.2v-7.2h1.3v6.1H152.8z"/>
				<path class="st7" d="M123.7,64.3c0.4,0,0.8,0,1.2,0.1c0.3,0.1,0.6,0.2,0.8,0.4c0.2,0.2,0.4,0.4,0.5,0.6c0.1,0.3,0.2,0.5,0.2,0.8
					c0,0.2,0,0.3-0.1,0.5c-0.1,0.2-0.1,0.3-0.2,0.4c-0.1,0.1-0.2,0.3-0.4,0.4c-0.2,0.1-0.4,0.2-0.6,0.3c1,0.2,1.5,0.8,1.5,1.6
					c0,0.3-0.1,0.6-0.2,0.8c-0.1,0.3-0.3,0.5-0.5,0.7c-0.2,0.2-0.5,0.3-0.8,0.4c-0.4,0.1-0.7,0.2-1.1,0.2h-2.7v-7.2L123.7,64.3z
					 M122.6,65.3v2.1h1.1c0.4,0,0.7-0.1,1-0.2c0.2-0.2,0.4-0.5,0.4-0.8c0-0.3-0.1-0.6-0.3-0.8c-0.3-0.2-0.6-0.3-1-0.2L122.6,65.3z
					 M123.9,70.4c0.2,0,0.4,0,0.6-0.1c0.2,0,0.3-0.1,0.4-0.2c0.1-0.1,0.2-0.2,0.2-0.4c0-0.1,0.1-0.3,0.1-0.4c0-0.1,0-0.3-0.1-0.4
					c0-0.1-0.1-0.2-0.2-0.3c-0.1-0.1-0.3-0.2-0.4-0.2c-0.2-0.1-0.4-0.1-0.6-0.1h-1.4v2.1L123.9,70.4z"/>
				<path class="st7" d="M134.7,67.9c0,0.5-0.1,1-0.3,1.5c-0.2,0.4-0.4,0.8-0.7,1.2c-0.3,0.3-0.7,0.6-1.2,0.8c-1,0.4-2,0.4-3,0
					c-0.4-0.2-0.8-0.4-1.2-0.8c-0.3-0.3-0.6-0.7-0.7-1.2c-0.4-0.9-0.4-2,0-2.9c0.2-0.4,0.4-0.8,0.7-1.2c0.3-0.3,0.7-0.6,1.2-0.8
					c0.5-0.2,1-0.3,1.5-0.3c0.3,0,0.7,0,1,0.1c0.3,0.1,0.6,0.2,0.9,0.4c0.3,0.2,0.5,0.3,0.7,0.6c0.2,0.2,0.4,0.5,0.5,0.7
					c0.2,0.3,0.3,0.6,0.3,0.9C134.7,67.2,134.7,67.5,134.7,67.9z M133.3,67.9c0-0.4,0-0.7-0.2-1.1c-0.1-0.3-0.3-0.6-0.5-0.8
					c-0.2-0.2-0.4-0.4-0.7-0.5c-0.6-0.2-1.3-0.2-1.9,0c-0.3,0.1-0.5,0.3-0.7,0.5c-0.2,0.2-0.4,0.5-0.5,0.8c-0.2,0.7-0.2,1.4,0,2.1
					c0.1,0.3,0.3,0.6,0.5,0.8c0.2,0.2,0.4,0.4,0.7,0.5c0.6,0.2,1.3,0.2,1.9,0c0.3-0.1,0.5-0.3,0.7-0.5c0.2-0.2,0.4-0.5,0.5-0.8
					C133.3,68.6,133.3,68.2,133.3,67.9L133.3,67.9z"/>
				<path class="st7" d="M142.8,67.9c0,0.5-0.1,1-0.3,1.5c-0.2,0.4-0.4,0.8-0.7,1.2c-0.3,0.3-0.7,0.6-1.2,0.8c-1,0.4-2,0.4-3,0
					c-0.4-0.2-0.8-0.4-1.2-0.8c-0.3-0.3-0.6-0.7-0.7-1.2c-0.4-0.9-0.4-2,0-2.9c0.2-0.4,0.4-0.8,0.7-1.2c0.3-0.3,0.7-0.6,1.2-0.8
					c0.5-0.2,1-0.3,1.5-0.3c0.3,0,0.7,0,1,0.1c0.3,0.1,0.6,0.2,0.9,0.4c0.3,0.2,0.5,0.3,0.7,0.6c0.2,0.2,0.4,0.5,0.5,0.7
					c0.2,0.3,0.3,0.6,0.3,0.9C142.8,67.2,142.8,67.5,142.8,67.9z M141.4,67.9c0-0.4,0-0.7-0.2-1.1c-0.1-0.3-0.3-0.6-0.5-0.8
					c-0.2-0.2-0.4-0.4-0.7-0.5c-0.6-0.2-1.3-0.2-1.9,0c-0.3,0.1-0.5,0.3-0.7,0.5c-0.2,0.2-0.4,0.5-0.5,0.8c-0.2,0.7-0.2,1.4,0,2.1
					c0.1,0.3,0.3,0.6,0.5,0.8c0.2,0.2,0.4,0.4,0.7,0.5c0.6,0.2,1.3,0.2,1.9,0c0.3-0.1,0.5-0.3,0.7-0.5c0.2-0.2,0.4-0.5,0.5-0.8
					C141.4,68.6,141.4,68.2,141.4,67.9L141.4,67.9z"/>
				<path class="st7" d="M145.3,67.3h0.3c0.1,0,0.2,0,0.3-0.1c0.1,0,0.2-0.1,0.2-0.2l2-2.5c0.1-0.1,0.2-0.2,0.3-0.2
					c0.1,0,0.2-0.1,0.3-0.1h1.2l-2.4,3c-0.1,0.2-0.3,0.3-0.4,0.4c0.1,0,0.2,0.1,0.3,0.2c0.1,0.1,0.2,0.2,0.3,0.3l2.5,3.4h-1.2
					c-0.1,0-0.2,0-0.4-0.1c-0.1,0-0.1-0.1-0.2-0.2l-2-2.7c-0.1-0.1-0.1-0.1-0.2-0.2c-0.1,0-0.2-0.1-0.4-0.1h-0.4v3.2H144v-7.2h1.3
					V67.3z"/>
				<path class="st7" d="M152.2,71.5h-1.4v-7.2h1.4V71.5z"/>
				<path class="st7" d="M159.9,64.3v7.2h-0.7c-0.2,0-0.4-0.1-0.5-0.2l-3.8-4.8c0,0.2,0,0.4,0,0.6v4.4h-1.2v-7.2h0.7
					c0,0,0.1,0,0.1,0c0,0,0.1,0,0.1,0c0,0,0.1,0,0.1,0.1c0,0,0.1,0.1,0.1,0.1l3.8,4.8c0-0.1,0-0.2,0-0.3c0-0.1,0-0.2,0-0.3v-4.4
					H159.9z"/>
				<path class="st7" d="M167.5,67.9v2.9c-0.4,0.3-0.8,0.5-1.2,0.6c-0.4,0.1-0.9,0.2-1.3,0.2c-0.5,0-1.1-0.1-1.6-0.3
					c-0.5-0.2-0.9-0.4-1.2-0.8c-0.3-0.3-0.6-0.7-0.8-1.2c-0.2-0.5-0.3-1-0.3-1.5c0-0.5,0.1-1,0.3-1.5c0.3-0.9,1-1.6,1.9-1.9
					c0.5-0.2,1-0.3,1.6-0.3c0.3,0,0.6,0,0.8,0.1c0.2,0,0.5,0.1,0.7,0.2c0.2,0.1,0.4,0.2,0.6,0.3c0.2,0.1,0.3,0.2,0.5,0.4l-0.4,0.6
					c-0.1,0.1-0.1,0.2-0.2,0.2c-0.1,0-0.2,0-0.3-0.1c-0.1-0.1-0.2-0.1-0.3-0.2c-0.1-0.1-0.2-0.1-0.4-0.2c-0.1-0.1-0.3-0.1-0.5-0.1
					c-0.2,0-0.4,0-0.6,0c-0.3,0-0.7,0.1-1,0.2c-0.3,0.1-0.5,0.3-0.7,0.5c-0.2,0.2-0.4,0.5-0.5,0.8c-0.1,0.3-0.2,0.7-0.2,1.1
					c0,0.4,0.1,0.8,0.2,1.1c0.1,0.3,0.3,0.6,0.5,0.8c0.2,0.2,0.5,0.4,0.8,0.5c0.6,0.2,1.2,0.2,1.7,0.1c0.2-0.1,0.4-0.1,0.6-0.2v-1.3
					h-0.9c-0.1,0-0.1,0-0.2-0.1c0,0-0.1-0.1-0.1-0.2v-0.8L167.5,67.9z"/>
				<path class="st7" d="M172.6,65.6c0,0.1-0.1,0.1-0.1,0.2c0,0-0.1,0.1-0.2,0c-0.1,0-0.2,0-0.2-0.1c-0.1-0.1-0.2-0.1-0.3-0.2
					c-0.1-0.1-0.3-0.1-0.4-0.2c-0.2-0.1-0.4-0.1-0.5-0.1c-0.2,0-0.3,0-0.5,0.1c-0.1,0-0.2,0.1-0.4,0.2c-0.1,0.1-0.2,0.2-0.2,0.3
					c0,0.1-0.1,0.2-0.1,0.4c0,0.2,0,0.3,0.1,0.4c0.1,0.1,0.2,0.2,0.4,0.3c0.2,0.1,0.4,0.2,0.5,0.2c0.2,0.1,0.4,0.1,0.6,0.2
					c0.2,0.1,0.4,0.2,0.6,0.2c0.2,0.1,0.4,0.2,0.5,0.4c0.2,0.2,0.3,0.3,0.4,0.5c0.1,0.2,0.2,0.5,0.1,0.8c0,0.3-0.1,0.6-0.2,0.9
					c-0.1,0.3-0.3,0.5-0.5,0.7c-0.2,0.2-0.5,0.4-0.8,0.5c-0.3,0.1-0.7,0.2-1.1,0.2c-0.2,0-0.5,0-0.7-0.1c-0.2,0-0.4-0.1-0.6-0.2
					c-0.2-0.1-0.4-0.2-0.6-0.3c-0.2-0.1-0.3-0.2-0.5-0.4l0.4-0.6c0,0,0.1-0.1,0.1-0.1c0.1,0,0.1,0,0.2,0c0.1,0,0.2,0,0.3,0.1
					c0.1,0.1,0.2,0.1,0.3,0.2c0.1,0.1,0.3,0.2,0.5,0.2c0.2,0.1,0.4,0.1,0.6,0.1c0.3,0,0.6-0.1,0.9-0.3c0.2-0.2,0.3-0.5,0.3-0.8
					c0-0.2,0-0.3-0.1-0.5c-0.1-0.1-0.2-0.2-0.4-0.3c-0.2-0.1-0.4-0.2-0.5-0.2c-0.2-0.1-0.4-0.1-0.6-0.2c-0.2-0.1-0.4-0.1-0.6-0.2
					c-0.2-0.1-0.4-0.2-0.5-0.4c-0.2-0.2-0.3-0.4-0.4-0.6c-0.1-0.3-0.2-0.5-0.1-0.8c0-0.5,0.2-1.1,0.6-1.4c0.2-0.2,0.5-0.4,0.7-0.5
					c0.3-0.1,0.7-0.2,1-0.2c0.4,0,0.8,0.1,1.2,0.2c0.3,0.1,0.7,0.3,0.9,0.6L172.6,65.6z"/>
				<path class="st7" d="M321.3,52.3v7.2H320v-3.2h-3.4v3.2h-1.4v-7.2h1.4v3.1h3.4v-3.1H321.3z"/>
				<path class="st7" d="M329.8,55.9c0,0.5-0.1,1-0.3,1.5c-0.2,0.4-0.4,0.8-0.7,1.2c-0.3,0.3-0.7,0.6-1.2,0.8c-1,0.4-2,0.4-3,0
					c-0.4-0.2-0.8-0.4-1.2-0.8c-0.3-0.3-0.6-0.7-0.7-1.2c-0.4-1-0.4-2,0-2.9c0.2-0.4,0.4-0.8,0.7-1.2c0.3-0.3,0.7-0.6,1.2-0.8
					c0.5-0.2,1-0.3,1.5-0.3c0.3,0,0.7,0,1,0.1c0.3,0.1,0.6,0.2,0.9,0.4c0.3,0.2,0.5,0.3,0.7,0.6c0.2,0.2,0.4,0.5,0.5,0.7
					c0.2,0.3,0.3,0.6,0.3,0.9C329.8,55.2,329.8,55.5,329.8,55.9z M328.5,55.9c0-0.4,0-0.7-0.2-1.1c-0.1-0.3-0.3-0.6-0.5-0.8
					c-0.2-0.2-0.4-0.4-0.7-0.5c-0.6-0.2-1.3-0.2-1.9,0c-0.3,0.1-0.5,0.3-0.7,0.5c-0.2,0.2-0.4,0.5-0.5,0.8c-0.2,0.7-0.2,1.4,0,2.1
					c0.1,0.3,0.3,0.6,0.5,0.8c0.2,0.2,0.4,0.4,0.7,0.5c0.6,0.2,1.3,0.2,1.9,0c0.3-0.1,0.5-0.3,0.7-0.5c0.2-0.2,0.4-0.5,0.5-0.8
					C328.4,56.6,328.5,56.2,328.5,55.9L328.5,55.9z"/>
				<path class="st7" d="M335.3,58.4v1.1H331v-7.2h1.3v6.1H335.3z"/>
				<path class="st7" d="M337.6,59.5h-1.4v-7.2h1.4V59.5z"/>
				<path class="st7" d="M345.6,55.9c0,0.5-0.1,1-0.3,1.5c-0.3,0.9-1,1.6-1.9,1.9c-0.5,0.2-1,0.3-1.5,0.3h-2.8v-7.2h2.8
					c0.5,0,1,0.1,1.5,0.3c0.4,0.2,0.8,0.4,1.2,0.7c0.3,0.3,0.6,0.7,0.7,1.1C345.5,54.9,345.6,55.4,345.6,55.9z M344.2,55.9
					c0-0.4,0-0.7-0.2-1.1c-0.1-0.3-0.2-0.6-0.5-0.8c-0.2-0.2-0.4-0.4-0.7-0.5c-0.3-0.1-0.6-0.2-1-0.2h-1.4v5.1h1.4
					c0.3,0,0.7-0.1,1-0.2c0.3-0.1,0.5-0.3,0.7-0.5c0.2-0.2,0.4-0.5,0.5-0.8C344.2,56.6,344.2,56.2,344.2,55.9L344.2,55.9z"/>
				<path class="st7" d="M352.8,59.5h-1c-0.1,0-0.2,0-0.3-0.1c-0.1-0.1-0.1-0.1-0.2-0.2l-0.5-1.5h-3l-0.5,1.5c0,0.1-0.1,0.2-0.2,0.2
					c-0.1,0.1-0.2,0.1-0.3,0.1h-1l2.8-7.2h1.4L352.8,59.5z M350.4,56.8l-0.9-2.4c0-0.1-0.1-0.2-0.1-0.4s-0.1-0.3-0.1-0.5
					c0,0.2-0.1,0.3-0.1,0.5c0,0.1-0.1,0.3-0.1,0.4l-0.9,2.4L350.4,56.8z"/>
				<path class="st7" d="M356.6,56.7v2.8h-1.3v-2.8l-2.6-4.4h1.2c0.1,0,0.2,0,0.3,0.1c0.1,0.1,0.1,0.1,0.2,0.2l1.3,2.4
					c0.1,0.1,0.1,0.3,0.2,0.4s0.1,0.3,0.2,0.4c0-0.1,0.1-0.3,0.1-0.4s0.1-0.3,0.2-0.4l1.3-2.4c0-0.1,0.1-0.1,0.2-0.2
					c0.1-0.1,0.2-0.1,0.3-0.1h1.2L356.6,56.7z"/>
				<path class="st7" d="M317.7,64.3c0.4,0,0.8,0,1.2,0.1c0.3,0.1,0.6,0.2,0.8,0.4c0.2,0.2,0.4,0.4,0.5,0.6c0.1,0.3,0.2,0.5,0.1,0.8
					c0,0.2,0,0.3-0.1,0.5c-0.1,0.2-0.1,0.3-0.2,0.4c-0.1,0.1-0.2,0.3-0.4,0.4c-0.2,0.1-0.4,0.2-0.6,0.3c1,0.2,1.5,0.8,1.5,1.6
					c0,0.3-0.1,0.6-0.2,0.8c-0.1,0.3-0.3,0.5-0.5,0.7c-0.2,0.2-0.5,0.3-0.8,0.4c-0.4,0.1-0.7,0.2-1.1,0.2h-2.7v-7.2L317.7,64.3z
					 M316.6,65.3v2.1h1.1c0.4,0,0.7-0.1,1-0.2c0.2-0.2,0.4-0.5,0.4-0.8c0-0.3-0.1-0.6-0.3-0.8c-0.3-0.2-0.6-0.3-1-0.2L316.6,65.3z
					 M317.9,70.4c0.2,0,0.4,0,0.6-0.1c0.2,0,0.3-0.1,0.4-0.2c0.1-0.1,0.2-0.2,0.2-0.4c0-0.1,0.1-0.3,0.1-0.4c0-0.1,0-0.3-0.1-0.4
					c0-0.1-0.1-0.2-0.2-0.3c-0.1-0.1-0.3-0.2-0.4-0.2c-0.2-0.1-0.4-0.1-0.6-0.1h-1.4v2.1L317.9,70.4z"/>
				<path class="st7" d="M328.7,67.9c0,0.5-0.1,1-0.3,1.5c-0.2,0.4-0.4,0.8-0.7,1.2c-0.3,0.3-0.7,0.6-1.2,0.8c-1,0.4-2,0.4-3,0
					c-0.4-0.2-0.8-0.4-1.2-0.8c-0.3-0.3-0.6-0.7-0.7-1.2c-0.4-0.9-0.4-2,0-2.9c0.2-0.4,0.4-0.8,0.7-1.2c0.3-0.3,0.7-0.6,1.2-0.8
					c0.5-0.2,1-0.3,1.5-0.3c0.3,0,0.7,0,1,0.1c0.3,0.1,0.6,0.2,0.9,0.4c0.3,0.2,0.5,0.3,0.7,0.6c0.2,0.2,0.4,0.5,0.5,0.7
					c0.2,0.3,0.3,0.6,0.3,0.9C328.7,67.2,328.7,67.5,328.7,67.9z M327.3,67.9c0-0.4,0-0.7-0.2-1.1c-0.1-0.3-0.3-0.6-0.5-0.8
					c-0.2-0.2-0.4-0.4-0.7-0.5c-0.6-0.2-1.3-0.2-1.9,0c-0.3,0.1-0.5,0.3-0.7,0.5c-0.2,0.2-0.4,0.5-0.5,0.8c-0.2,0.7-0.2,1.4,0,2.1
					c0.1,0.3,0.3,0.6,0.5,0.8c0.2,0.2,0.4,0.4,0.7,0.5c0.6,0.2,1.3,0.2,1.9,0c0.3-0.1,0.5-0.3,0.7-0.5c0.2-0.2,0.4-0.5,0.5-0.8
					C327.3,68.6,327.3,68.2,327.3,67.9L327.3,67.9z"/>
				<path class="st7" d="M336.8,67.9c0,0.5-0.1,1-0.3,1.5c-0.2,0.4-0.4,0.8-0.7,1.2c-0.3,0.3-0.7,0.6-1.2,0.8c-1,0.4-2,0.4-3,0
					c-0.4-0.2-0.8-0.4-1.2-0.8c-0.3-0.3-0.6-0.7-0.7-1.2c-0.4-0.9-0.4-2,0-2.9c0.2-0.4,0.4-0.8,0.7-1.2c0.3-0.3,0.7-0.6,1.2-0.8
					c0.5-0.2,1-0.3,1.5-0.3c0.3,0,0.7,0,1,0.1c0.3,0.1,0.6,0.2,0.9,0.4c0.3,0.2,0.5,0.3,0.7,0.6c0.2,0.2,0.4,0.5,0.5,0.7
					c0.2,0.3,0.3,0.6,0.3,0.9C336.8,67.2,336.8,67.5,336.8,67.9z M335.4,67.9c0-0.4,0-0.7-0.2-1.1c-0.1-0.3-0.3-0.6-0.5-0.8
					c-0.2-0.2-0.4-0.4-0.7-0.5c-0.6-0.2-1.3-0.2-1.9,0c-0.3,0.1-0.5,0.3-0.7,0.5c-0.2,0.2-0.4,0.5-0.5,0.8c-0.2,0.7-0.2,1.4,0,2.1
					c0.1,0.3,0.3,0.6,0.5,0.8c0.2,0.2,0.4,0.4,0.7,0.5c0.6,0.2,1.3,0.2,1.9,0c0.3-0.1,0.5-0.3,0.7-0.5c0.2-0.2,0.4-0.5,0.5-0.8
					C335.4,68.6,335.4,68.2,335.4,67.9L335.4,67.9z"/>
				<path class="st7" d="M339.3,67.3h0.3c0.1,0,0.2,0,0.3-0.1c0.1,0,0.2-0.1,0.2-0.2l2-2.5c0.1-0.1,0.2-0.2,0.3-0.2
					c0.1,0,0.2-0.1,0.3-0.1h1.2l-2.4,3c-0.1,0.2-0.3,0.3-0.4,0.4c0.1,0,0.2,0.1,0.3,0.2c0.1,0.1,0.2,0.2,0.3,0.3l2.5,3.4h-1.2
					c-0.1,0-0.2,0-0.4-0.1c-0.1,0-0.1-0.1-0.2-0.2l-2-2.7c-0.1-0.1-0.1-0.1-0.2-0.2c-0.1,0-0.2-0.1-0.4-0.1h-0.4v3.2H338v-7.2h1.3
					V67.3z"/>
				<path class="st7" d="M346.2,71.5h-1.4v-7.2h1.4V71.5z"/>
				<path class="st7" d="M353.9,64.3v7.2h-0.7c-0.2,0-0.4-0.1-0.5-0.2l-3.8-4.8c0,0.2,0,0.4,0,0.6v4.4h-1.2v-7.2h0.7
					c0,0,0.1,0,0.1,0c0,0,0.1,0,0.1,0c0,0,0.1,0,0.1,0.1c0,0,0.1,0.1,0.1,0.1l3.8,4.8c0-0.1,0-0.2,0-0.3c0-0.1,0-0.2,0-0.3v-4.4
					H353.9z"/>
				<path class="st7" d="M361.5,67.9v2.9c-0.4,0.3-0.8,0.5-1.2,0.6c-0.4,0.1-0.9,0.2-1.3,0.2c-0.5,0-1.1-0.1-1.6-0.3
					c-0.5-0.2-0.9-0.4-1.2-0.8c-0.3-0.3-0.6-0.7-0.8-1.2c-0.2-0.5-0.3-1-0.3-1.5c0-0.5,0.1-1,0.3-1.5c0.3-0.9,1-1.6,1.9-1.9
					c0.5-0.2,1-0.3,1.6-0.3c0.3,0,0.6,0,0.8,0.1c0.2,0,0.5,0.1,0.7,0.2c0.2,0.1,0.4,0.2,0.6,0.3c0.2,0.1,0.3,0.2,0.5,0.4l-0.4,0.6
					c-0.1,0.1-0.1,0.2-0.2,0.2c-0.1,0-0.2,0-0.3-0.1c-0.1-0.1-0.2-0.1-0.3-0.2c-0.1-0.1-0.2-0.1-0.4-0.2c-0.1-0.1-0.3-0.1-0.5-0.1
					c-0.2,0-0.4,0-0.6,0c-0.3,0-0.7,0.1-1,0.2c-0.3,0.1-0.5,0.3-0.7,0.5c-0.2,0.2-0.4,0.5-0.5,0.8c-0.1,0.3-0.2,0.7-0.2,1.1
					c0,0.4,0.1,0.8,0.2,1.1c0.1,0.3,0.3,0.6,0.5,0.8c0.2,0.2,0.5,0.4,0.8,0.5c0.6,0.2,1.2,0.2,1.7,0.1c0.2-0.1,0.4-0.1,0.6-0.2v-1.3
					h-0.9c-0.1,0-0.1,0-0.2-0.1c0,0-0.1-0.1-0.1-0.2v-0.8L361.5,67.9z"/>
				<path class="st7" d="M366.6,65.6c0,0.1-0.1,0.1-0.1,0.2c0,0-0.1,0.1-0.2,0c-0.1,0-0.2,0-0.2-0.1c-0.1-0.1-0.2-0.1-0.3-0.2
					c-0.1-0.1-0.3-0.1-0.4-0.2c-0.2-0.1-0.4-0.1-0.5-0.1c-0.2,0-0.3,0-0.5,0.1c-0.1,0-0.2,0.1-0.4,0.2c-0.1,0.1-0.2,0.2-0.2,0.3
					c0,0.1-0.1,0.2-0.1,0.4c0,0.2,0,0.3,0.1,0.4c0.1,0.1,0.2,0.2,0.4,0.3c0.2,0.1,0.4,0.2,0.5,0.2c0.2,0.1,0.4,0.1,0.6,0.2
					c0.2,0.1,0.4,0.2,0.6,0.2c0.2,0.1,0.4,0.2,0.5,0.4c0.2,0.2,0.3,0.3,0.4,0.5c0.1,0.2,0.2,0.5,0.1,0.8c0,0.3-0.1,0.6-0.2,0.9
					c-0.1,0.3-0.3,0.5-0.5,0.7c-0.2,0.2-0.5,0.4-0.8,0.5c-0.3,0.1-0.7,0.2-1.1,0.2c-0.2,0-0.5,0-0.7-0.1c-0.2,0-0.4-0.1-0.6-0.2
					c-0.2-0.1-0.4-0.2-0.6-0.3c-0.2-0.1-0.3-0.2-0.5-0.4l0.4-0.6c0,0,0.1-0.1,0.1-0.1c0.1,0,0.1,0,0.2,0c0.1,0,0.2,0,0.3,0.1
					c0.1,0.1,0.2,0.1,0.3,0.2c0.1,0.1,0.3,0.2,0.5,0.2c0.2,0.1,0.4,0.1,0.6,0.1c0.3,0,0.6-0.1,0.9-0.3c0.2-0.2,0.3-0.5,0.3-0.8
					c0-0.2,0-0.3-0.1-0.5c-0.1-0.1-0.2-0.2-0.4-0.3c-0.2-0.1-0.4-0.2-0.5-0.2c-0.2-0.1-0.4-0.1-0.6-0.2c-0.2-0.1-0.4-0.1-0.6-0.2
					c-0.2-0.1-0.4-0.2-0.5-0.4c-0.2-0.2-0.3-0.4-0.4-0.6c-0.1-0.3-0.2-0.5-0.1-0.8c0-0.5,0.2-1.1,0.6-1.4c0.2-0.2,0.5-0.4,0.7-0.5
					c0.3-0.1,0.7-0.2,1-0.2c0.4,0,0.8,0.1,1.2,0.2c0.3,0.1,0.7,0.3,0.9,0.6L366.6,65.6z"/>
				<path class="st7" d="M221.7,52.3c0.4,0,0.8,0,1.2,0.1c0.3,0.1,0.6,0.2,0.8,0.4c0.2,0.2,0.4,0.4,0.5,0.6c0.1,0.3,0.2,0.5,0.1,0.8
					c0,0.2,0,0.3-0.1,0.5c-0.1,0.2-0.1,0.3-0.2,0.4c-0.1,0.1-0.2,0.3-0.4,0.4c-0.2,0.1-0.4,0.2-0.6,0.3c1,0.2,1.5,0.8,1.5,1.6
					c0,0.3-0.1,0.6-0.2,0.8c-0.1,0.3-0.3,0.5-0.5,0.7c-0.2,0.2-0.5,0.3-0.8,0.4c-0.4,0.1-0.7,0.2-1.1,0.2h-2.7v-7.2L221.7,52.3z
					 M220.6,53.3v2.1h1.1c0.4,0,0.7-0.1,1-0.2c0.2-0.2,0.4-0.5,0.4-0.8c0-0.3-0.1-0.6-0.3-0.8c-0.3-0.2-0.6-0.3-1-0.2L220.6,53.3z
					 M221.9,58.4c0.2,0,0.4,0,0.6-0.1c0.2,0,0.3-0.1,0.4-0.2c0.1-0.1,0.2-0.2,0.2-0.4c0-0.1,0.1-0.3,0.1-0.4c0-0.1,0-0.3-0.1-0.4
					c0-0.1-0.1-0.2-0.2-0.3c-0.1-0.1-0.3-0.2-0.4-0.2c-0.2-0.1-0.4-0.1-0.6-0.1h-1.4v2.1L221.9,58.4z"/>
				<path class="st7" d="M232.7,55.9c0,0.5-0.1,1-0.3,1.5c-0.2,0.4-0.4,0.8-0.7,1.2c-0.3,0.3-0.7,0.6-1.2,0.8c-1,0.4-2,0.4-3,0
					c-0.4-0.2-0.8-0.4-1.2-0.8c-0.3-0.3-0.6-0.7-0.7-1.2c-0.4-0.9-0.4-2,0-2.9c0.2-0.4,0.4-0.8,0.7-1.2c0.3-0.3,0.7-0.6,1.2-0.8
					c0.5-0.2,1-0.3,1.5-0.3c0.3,0,0.7,0,1,0.1c0.3,0.1,0.6,0.2,0.9,0.4c0.3,0.2,0.5,0.3,0.7,0.6c0.2,0.2,0.4,0.5,0.5,0.7
					c0.2,0.3,0.3,0.6,0.3,0.9C232.7,55.2,232.7,55.5,232.7,55.9z M231.3,55.9c0-0.4,0-0.7-0.2-1.1c-0.1-0.3-0.3-0.6-0.5-0.8
					c-0.2-0.2-0.4-0.4-0.7-0.5c-0.6-0.2-1.3-0.2-1.9,0c-0.3,0.1-0.5,0.3-0.7,0.5c-0.2,0.2-0.4,0.5-0.5,0.8c-0.2,0.7-0.2,1.4,0,2.1
					c0.1,0.3,0.3,0.6,0.5,0.8c0.2,0.2,0.4,0.4,0.7,0.5c0.6,0.2,1.3,0.2,1.9,0c0.3-0.1,0.5-0.3,0.7-0.5c0.2-0.2,0.4-0.5,0.5-0.8
					C231.3,56.6,231.3,56.2,231.3,55.9L231.3,55.9z"/>
				<path class="st7" d="M240.8,55.9c0,0.5-0.1,1-0.3,1.5c-0.2,0.4-0.4,0.8-0.7,1.2c-0.3,0.3-0.7,0.6-1.2,0.8c-1,0.4-2,0.4-3,0
					c-0.4-0.2-0.8-0.4-1.2-0.8c-0.3-0.3-0.6-0.7-0.7-1.2c-0.4-0.9-0.4-2,0-2.9c0.2-0.4,0.4-0.8,0.7-1.2c0.3-0.3,0.7-0.6,1.2-0.8
					c0.5-0.2,1-0.3,1.5-0.3c0.3,0,0.7,0,1,0.1c0.3,0.1,0.6,0.2,0.9,0.4c0.3,0.2,0.5,0.3,0.7,0.6c0.2,0.2,0.4,0.5,0.5,0.7
					c0.2,0.3,0.3,0.6,0.3,0.9C240.8,55.2,240.8,55.5,240.8,55.9z M239.4,55.9c0-0.4,0-0.7-0.2-1.1c-0.1-0.3-0.3-0.6-0.5-0.8
					c-0.2-0.2-0.4-0.4-0.7-0.5c-0.6-0.2-1.3-0.2-1.9,0c-0.3,0.1-0.5,0.3-0.7,0.5c-0.2,0.2-0.4,0.5-0.5,0.8c-0.2,0.7-0.2,1.4,0,2.1
					c0.1,0.3,0.3,0.6,0.5,0.8c0.2,0.2,0.4,0.4,0.7,0.5c0.6,0.2,1.3,0.2,1.9,0c0.3-0.1,0.5-0.3,0.7-0.5c0.2-0.2,0.4-0.5,0.5-0.8
					C239.4,56.6,239.4,56.2,239.4,55.9L239.4,55.9z"/>
				<path class="st7" d="M243.3,55.3h0.3c0.1,0,0.2,0,0.3-0.1c0.1,0,0.2-0.1,0.2-0.2l2-2.5c0.1-0.1,0.2-0.2,0.3-0.2
					c0.1,0,0.2-0.1,0.3-0.1h1.2l-2.4,3c-0.1,0.2-0.3,0.3-0.4,0.4c0.1,0,0.2,0.1,0.3,0.2c0.1,0.1,0.2,0.2,0.3,0.3l2.5,3.4h-1.2
					c-0.1,0-0.2,0-0.4-0.1c-0.1,0-0.1-0.1-0.2-0.2l-2-2.7c-0.1-0.1-0.1-0.1-0.2-0.2c-0.1,0-0.2-0.1-0.4-0.1h-0.4v3.2H242v-7.2h1.3
					V55.3z"/>
				<path class="st7" d="M250.2,59.5h-1.4v-7.2h1.4V59.5z"/>
				<path class="st7" d="M257.9,52.3v7.2h-0.7c-0.2,0-0.4-0.1-0.5-0.2l-3.8-4.8c0,0.2,0,0.4,0,0.6v4.4h-1.2v-7.2h0.7
					c0,0,0.1,0,0.1,0c0,0,0.1,0,0.1,0c0,0,0.1,0,0.1,0.1c0,0,0.1,0.1,0.1,0.1l3.8,4.8c0-0.1,0-0.2,0-0.3c0-0.1,0-0.2,0-0.3v-4.4
					H257.9z"/>
				<path class="st7" d="M265.5,55.9v2.9c-0.4,0.3-0.8,0.5-1.2,0.6c-0.4,0.1-0.9,0.2-1.3,0.2c-0.5,0-1.1-0.1-1.6-0.3
					c-0.5-0.2-0.9-0.4-1.2-0.8c-0.3-0.3-0.6-0.7-0.8-1.2c-0.2-0.5-0.3-1-0.3-1.5c0-0.5,0.1-1,0.3-1.5c0.3-0.9,1-1.6,1.9-1.9
					c0.5-0.2,1-0.3,1.6-0.3c0.3,0,0.6,0,0.8,0.1c0.2,0,0.5,0.1,0.7,0.2c0.2,0.1,0.4,0.2,0.6,0.3c0.2,0.1,0.3,0.2,0.5,0.4l-0.4,0.6
					c-0.1,0.1-0.1,0.2-0.2,0.2c-0.1,0-0.2,0-0.3-0.1c-0.1-0.1-0.2-0.1-0.3-0.2c-0.1-0.1-0.2-0.1-0.4-0.2c-0.1-0.1-0.3-0.1-0.5-0.1
					c-0.2,0-0.4,0-0.6,0c-0.3,0-0.7,0.1-1,0.2c-0.3,0.1-0.5,0.3-0.7,0.5c-0.2,0.2-0.4,0.5-0.5,0.8c-0.1,0.3-0.2,0.7-0.2,1
					c0,0.4,0.1,0.8,0.2,1.1c0.1,0.3,0.3,0.6,0.5,0.8c0.2,0.2,0.5,0.4,0.8,0.5c0.6,0.2,1.2,0.2,1.7,0.1c0.2-0.1,0.4-0.1,0.6-0.2v-1.3
					h-0.9c-0.1,0-0.1,0-0.2-0.1c0,0-0.1-0.1-0.1-0.2v-0.8L265.5,55.9z"/>
				<path class="st7" d="M223.5,70.4v1.1h-4.2v-7.2h1.3v6.1H223.5z"/>
				<path class="st7" d="M231.1,67.9c0,0.5-0.1,1-0.3,1.5c-0.2,0.4-0.4,0.8-0.7,1.2c-0.3,0.3-0.7,0.6-1.2,0.8c-1,0.4-2,0.4-3,0
					c-0.4-0.2-0.8-0.4-1.2-0.8c-0.3-0.3-0.6-0.7-0.7-1.2c-0.4-1-0.4-2,0-2.9c0.2-0.4,0.4-0.8,0.7-1.2c0.3-0.3,0.7-0.6,1.2-0.8
					c0.5-0.2,1-0.3,1.5-0.3c0.3,0,0.7,0,1,0.1c0.3,0.1,0.6,0.2,0.9,0.4c0.3,0.2,0.5,0.3,0.7,0.6c0.2,0.2,0.4,0.5,0.5,0.7
					c0.2,0.3,0.3,0.6,0.3,0.9C231,67.2,231.1,67.5,231.1,67.9z M229.7,67.9c0-0.4,0-0.7-0.2-1.1c-0.1-0.3-0.3-0.6-0.5-0.8
					c-0.2-0.2-0.4-0.4-0.7-0.5c-0.6-0.2-1.3-0.2-1.9,0c-0.3,0.1-0.5,0.3-0.7,0.5c-0.2,0.2-0.4,0.5-0.5,0.8c-0.2,0.7-0.2,1.4,0,2.1
					c0.1,0.3,0.3,0.6,0.5,0.8c0.2,0.2,0.4,0.4,0.7,0.5c0.6,0.2,1.3,0.2,1.9,0c0.3-0.1,0.5-0.3,0.7-0.5c0.2-0.2,0.4-0.5,0.5-0.8
					C229.7,68.6,229.7,68.2,229.7,67.9z"/>
				<path class="st7" d="M237.2,69.8c0.1,0,0.1,0,0.2,0.1l0.5,0.6c-0.3,0.4-0.7,0.6-1.1,0.8c-0.5,0.2-1,0.3-1.5,0.3
					c-0.5,0-1-0.1-1.4-0.3c-0.4-0.2-0.8-0.4-1.1-0.8c-0.3-0.3-0.5-0.7-0.7-1.2c-0.2-0.5-0.2-1-0.2-1.5c0-0.5,0.1-1,0.3-1.5
					c0.2-0.4,0.4-0.8,0.7-1.2c0.3-0.3,0.7-0.6,1.1-0.8c0.5-0.2,1-0.3,1.5-0.3c0.5,0,1,0.1,1.4,0.3c0.4,0.2,0.7,0.4,1,0.7l-0.4,0.6
					c0,0-0.1,0.1-0.1,0.1c-0.1,0-0.1,0-0.2,0c-0.1,0-0.1,0-0.2,0c-0.1,0-0.1-0.1-0.2-0.1s-0.1-0.1-0.2-0.1c-0.1-0.1-0.2-0.1-0.3-0.1
					c-0.1,0-0.3-0.1-0.4-0.1c-0.2,0-0.3,0-0.5,0c-0.3,0-0.6,0.1-0.9,0.2c-0.3,0.1-0.5,0.3-0.7,0.5c-0.2,0.2-0.4,0.5-0.4,0.8
					c-0.1,0.3-0.2,0.7-0.2,1.1c0,0.4,0.1,0.7,0.2,1.1c0.1,0.3,0.3,0.6,0.5,0.8c0.2,0.2,0.4,0.4,0.7,0.5c0.3,0.1,0.6,0.2,0.9,0.2
					c0.2,0,0.3,0,0.5,0c0.1,0,0.3-0.1,0.4-0.1c0.1,0,0.2-0.1,0.4-0.2c0.1-0.1,0.2-0.2,0.3-0.3c0,0,0.1-0.1,0.1-0.1
					C237.1,69.8,237.2,69.8,237.2,69.8z"/>
				<path class="st7" d="M245.1,71.5h-1c-0.1,0-0.2,0-0.3-0.1c-0.1-0.1-0.1-0.1-0.2-0.2l-0.5-1.5h-3l-0.5,1.5c0,0.1-0.1,0.2-0.2,0.2
					c-0.1,0.1-0.2,0.1-0.3,0.1H238l2.8-7.2h1.4L245.1,71.5z M242.7,68.8l-0.9-2.4c0-0.1-0.1-0.2-0.1-0.4s-0.1-0.3-0.1-0.5
					c0,0.2-0.1,0.3-0.1,0.5c0,0.1-0.1,0.3-0.1,0.4l-0.9,2.4L242.7,68.8z"/>
				<path class="st7" d="M250.9,65.4h-2.2v6.1h-1.3v-6.1h-2.2v-1.1h5.7L250.9,65.4z"/>
				<path class="st7" d="M253.2,71.5h-1.4v-7.2h1.4V71.5z"/>
				<path class="st7" d="M261.7,67.9c0,0.5-0.1,1-0.3,1.5c-0.2,0.4-0.4,0.8-0.7,1.2c-0.3,0.3-0.7,0.6-1.2,0.8c-1,0.4-2,0.4-3,0
					c-0.4-0.2-0.8-0.4-1.2-0.8c-0.3-0.3-0.6-0.7-0.7-1.2c-0.4-0.9-0.4-2,0-2.9c0.2-0.4,0.4-0.8,0.7-1.2c0.3-0.3,0.7-0.6,1.2-0.8
					c0.5-0.2,1-0.3,1.5-0.3c0.3,0,0.7,0,1,0.1c0.3,0.1,0.6,0.2,0.9,0.4c0.3,0.2,0.5,0.3,0.7,0.6c0.2,0.2,0.4,0.5,0.5,0.7
					c0.2,0.3,0.3,0.6,0.3,0.9C261.6,67.2,261.7,67.5,261.7,67.9z M260.3,67.9c0-0.4,0-0.7-0.2-1.1c-0.1-0.3-0.3-0.6-0.5-0.8
					c-0.2-0.2-0.4-0.4-0.7-0.5c-0.6-0.2-1.3-0.2-1.9,0c-0.3,0.1-0.5,0.3-0.7,0.5c-0.2,0.2-0.4,0.5-0.5,0.8c-0.2,0.7-0.2,1.4,0,2.1
					c0.1,0.3,0.3,0.6,0.5,0.8c0.2,0.2,0.4,0.4,0.7,0.5c0.6,0.2,1.3,0.2,1.9,0c0.3-0.1,0.5-0.3,0.7-0.5c0.2-0.2,0.4-0.5,0.5-0.8
					C260.3,68.6,260.3,68.2,260.3,67.9L260.3,67.9z"/>
				<path class="st7" d="M269,64.3v7.2h-0.7c-0.1,0-0.2,0-0.3-0.1c-0.1,0-0.2-0.1-0.2-0.2l-3.8-4.8c0,0.2,0,0.4,0,0.6v4.4h-1.2v-7.2
					h0.7c0,0,0.1,0,0.1,0c0,0,0.1,0,0.1,0c0,0,0.1,0,0.1,0.1c0,0,0.1,0.1,0.1,0.1l3.8,4.8c0-0.1,0-0.2,0-0.3s0-0.2,0-0.3v-4.4H269z"
					/>
				<path class="st7" d="M109,24c0.2,3.9,0.3,7.8,0.4,11.8c0.1,3.9,0.1,7.8,0.1,11.8c0,3.9,0,7.8-0.1,11.8l-0.1,5.9
					c-0.1,2-0.1,3.9-0.2,5.9c-0.1-2-0.2-3.9-0.2-5.9l-0.1-5.9c-0.1-3.9-0.1-7.8-0.1-11.8c0-3.9,0-7.8,0.1-11.8
					C108.7,31.8,108.8,27.9,109,24z"/>
				<path class="st7" d="M205.5,24c0.2,3.9,0.3,7.8,0.4,11.8c0.1,3.9,0.1,7.8,0.1,11.8c0,3.9,0,7.8-0.1,11.8l-0.1,5.9
					c-0.1,2-0.1,3.9-0.2,5.9c-0.1-2-0.2-3.9-0.2-5.9l-0.1-5.9c-0.1-3.9-0.1-7.8-0.1-11.8c0-3.9,0-7.8,0.1-11.8
					C205.2,31.8,205.3,27.9,205.5,24z"/>
				<path class="st7" d="M301.5,24c0.2,3.9,0.3,7.8,0.4,11.8c0.1,3.9,0.1,7.8,0.1,11.8c0,3.9,0,7.8-0.1,11.8l-0.1,5.9
					c-0.1,2-0.1,3.9-0.2,5.9c-0.1-2-0.2-3.9-0.2-5.9l-0.1-5.9c-0.1-3.9-0.1-7.8-0.1-11.8c0-3.9,0-7.8,0.1-11.8
					C301.2,31.8,301.3,27.9,301.5,24z"/>
				<path class="st7" d="M397.5,24c0.2,3.9,0.3,7.8,0.4,11.8c0.1,3.9,0.1,7.8,0.1,11.8c0,3.9,0,7.8-0.1,11.8l-0.1,5.9
					c-0.1,2-0.1,3.9-0.2,5.9c-0.1-2-0.2-3.9-0.2-5.9l-0.1-5.9c-0.1-3.9-0.1-7.8-0.1-11.8c0-3.9,0-7.8,0.1-11.8
					C397.2,31.8,397.3,27.9,397.5,24z"/>
				<path class="st7" d="M493.5,24c0.2,3.9,0.3,7.8,0.4,11.8c0.1,3.9,0.1,7.8,0.1,11.8c0,3.9,0,7.8-0.1,11.8l-0.1,5.9
					c-0.1,2-0.1,3.9-0.2,5.9c-0.1-2-0.2-3.9-0.2-5.9l-0.1-5.9c-0.1-3.9-0.1-7.8-0.1-11.8c0-3.9,0-7.8,0.1-11.8
					C493.2,31.8,493.3,27.9,493.5,24z"/>
				<path class="st7" d="M514.2,69.8c0.1,0,0.1,0,0.2,0.1l0.5,0.6c-0.3,0.4-0.7,0.6-1.1,0.8c-0.5,0.2-1,0.3-1.5,0.3
					c-0.5,0-1-0.1-1.4-0.3c-0.4-0.2-0.8-0.4-1.1-0.8c-0.3-0.3-0.5-0.7-0.7-1.2c-0.2-0.5-0.2-1-0.2-1.5c0-0.5,0.1-1,0.3-1.5
					c0.2-0.4,0.4-0.8,0.7-1.2c0.3-0.3,0.7-0.6,1.1-0.8c0.5-0.2,1-0.3,1.5-0.3c0.5,0,1,0.1,1.4,0.3c0.4,0.2,0.7,0.4,1,0.7l-0.4,0.6
					c0,0-0.1,0.1-0.1,0.1c-0.1,0-0.1,0-0.2,0c-0.1,0-0.1,0-0.2,0c-0.1,0-0.1-0.1-0.2-0.1s-0.1-0.1-0.2-0.1c-0.1-0.1-0.2-0.1-0.3-0.1
					c-0.1,0-0.3-0.1-0.4-0.1c-0.2,0-0.3,0-0.5,0c-0.3,0-0.6,0.1-0.9,0.2c-0.3,0.1-0.5,0.3-0.7,0.5c-0.2,0.2-0.4,0.5-0.5,0.8
					c-0.1,0.3-0.2,0.7-0.2,1.1c0,0.4,0.1,0.7,0.2,1.1c0.1,0.3,0.3,0.6,0.5,0.8c0.2,0.2,0.4,0.4,0.7,0.5c0.3,0.1,0.6,0.2,0.9,0.2
					c0.2,0,0.3,0,0.5,0c0.1,0,0.3,0,0.4-0.1c0.1,0,0.2-0.1,0.4-0.2c0.1-0.1,0.2-0.2,0.3-0.3c0,0,0.1-0.1,0.1-0.1
					C514.1,69.8,514.2,69.8,514.2,69.8z"/>
				<path class="st7" d="M522.6,67.9c0,0.5-0.1,1-0.3,1.5c-0.2,0.4-0.4,0.8-0.7,1.2c-0.3,0.3-0.7,0.6-1.2,0.8c-1,0.4-2,0.4-3,0
					c-0.4-0.2-0.8-0.4-1.2-0.8c-0.3-0.3-0.6-0.7-0.7-1.2c-0.4-0.9-0.4-2,0-2.9c0.2-0.4,0.4-0.8,0.7-1.2c0.3-0.3,0.7-0.6,1.2-0.8
					c0.5-0.2,1-0.3,1.5-0.3c0.3,0,0.7,0,1,0.1c0.3,0.1,0.6,0.2,0.9,0.4c0.3,0.2,0.5,0.3,0.7,0.6c0.2,0.2,0.4,0.5,0.5,0.7
					c0.2,0.3,0.3,0.6,0.3,0.9C522.6,67.2,522.6,67.5,522.6,67.9z M521.2,67.9c0-0.4,0-0.7-0.2-1.1c-0.1-0.3-0.3-0.6-0.5-0.8
					c-0.2-0.2-0.4-0.4-0.7-0.5c-0.6-0.2-1.3-0.2-1.9,0c-0.3,0.1-0.5,0.3-0.7,0.5c-0.2,0.2-0.4,0.5-0.5,0.8c-0.2,0.7-0.2,1.4,0,2.1
					c0.1,0.3,0.3,0.6,0.5,0.8c0.2,0.2,0.4,0.4,0.7,0.5c0.6,0.2,1.3,0.2,1.9,0c0.3-0.1,0.5-0.3,0.7-0.5c0.2-0.2,0.4-0.5,0.5-0.8
					C521.2,68.6,521.2,68.2,521.2,67.9L521.2,67.9z"/>
				<path class="st7" d="M529.9,64.3v7.2h-0.7c-0.1,0-0.2,0-0.3-0.1c-0.1,0-0.2-0.1-0.2-0.2l-3.8-4.8c0,0.2,0,0.4,0,0.6v4.4h-1.2
					v-7.2h0.7c0,0,0.1,0,0.1,0c0,0,0.1,0,0.1,0c0,0,0.1,0,0.1,0.1c0,0,0.1,0.1,0.1,0.1l3.8,4.8c0-0.1,0-0.2,0-0.3s0-0.2,0-0.3v-4.4
					H529.9z"/>
				<path class="st7" d="M536.5,65.4h-2.2v6.1H533v-6.1h-2.2v-1.1h5.7L536.5,65.4z"/>
				<path class="st7" d="M543.1,71.5h-1.2c-0.2,0-0.4-0.1-0.5-0.3l-1.5-2.3c0-0.1-0.1-0.1-0.2-0.2c-0.1,0-0.2-0.1-0.3-0.1h-0.6v2.8
					h-1.3v-7.2h2.2c0.4,0,0.9,0,1.3,0.2c0.3,0.1,0.6,0.2,0.9,0.4c0.2,0.2,0.4,0.4,0.5,0.7c0.2,0.5,0.2,1,0.1,1.5
					c-0.1,0.2-0.2,0.4-0.3,0.6c-0.1,0.2-0.3,0.3-0.5,0.5c-0.2,0.1-0.4,0.2-0.7,0.3c0.1,0,0.2,0.1,0.2,0.2c0.1,0.1,0.1,0.2,0.2,0.2
					L543.1,71.5z M539.7,67.7c0.2,0,0.4,0,0.7-0.1c0.2-0.1,0.3-0.1,0.5-0.3c0.1-0.1,0.2-0.2,0.3-0.4c0.1-0.2,0.1-0.3,0.1-0.5
					c0-0.3-0.1-0.6-0.4-0.8c-0.3-0.2-0.7-0.3-1.1-0.3h-0.9v2.4L539.7,67.7z"/>
				<path class="st7" d="M545.3,71.5h-1.3v-7.2h1.3V71.5z"/>
				<path class="st7" d="M549.4,64.3c0.4,0,0.8,0,1.2,0.1c0.3,0.1,0.6,0.2,0.8,0.4c0.2,0.2,0.4,0.4,0.5,0.6c0.1,0.3,0.2,0.5,0.1,0.8
					c0,0.2,0,0.3-0.1,0.5c-0.1,0.2-0.1,0.3-0.2,0.4c-0.1,0.1-0.2,0.3-0.4,0.4c-0.2,0.1-0.4,0.2-0.6,0.3c1,0.2,1.5,0.8,1.5,1.6
					c0,0.3-0.1,0.6-0.2,0.8c-0.1,0.3-0.3,0.5-0.5,0.7c-0.2,0.2-0.5,0.3-0.8,0.4c-0.4,0.1-0.7,0.2-1.1,0.2h-2.7v-7.2L549.4,64.3z
					 M548.2,65.3v2.1h1.1c0.4,0,0.7-0.1,1-0.2c0.2-0.2,0.4-0.5,0.4-0.8c0-0.3-0.1-0.6-0.3-0.8c-0.3-0.2-0.6-0.3-1-0.2L548.2,65.3z
					 M549.6,70.4c0.2,0,0.4,0,0.6-0.1c0.2,0,0.3-0.1,0.4-0.2c0.1-0.1,0.2-0.2,0.2-0.4c0-0.1,0.1-0.3,0.1-0.4c0-0.1,0-0.3-0.1-0.4
					c0-0.1-0.1-0.2-0.2-0.3c-0.1-0.1-0.3-0.2-0.4-0.2c-0.2-0.1-0.4-0.1-0.6-0.1h-1.4v2.1L549.6,70.4z"/>
				<path class="st7" d="M556.4,70.4c0.2,0,0.5,0,0.7-0.1c0.2-0.1,0.4-0.2,0.5-0.4c0.1-0.2,0.3-0.4,0.3-0.6c0.1-0.2,0.1-0.5,0.1-0.8
					v-4.3h1.3v4.3c0,0.4-0.1,0.8-0.2,1.2c-0.1,0.4-0.3,0.7-0.6,0.9c-0.3,0.3-0.6,0.5-0.9,0.6c-0.8,0.3-1.7,0.3-2.5,0
					c-0.7-0.3-1.3-0.8-1.5-1.6c-0.1-0.4-0.2-0.8-0.2-1.2v-4.3h1.3v4.3c0,0.3,0,0.5,0.1,0.8c0.1,0.2,0.2,0.4,0.3,0.6
					c0.1,0.2,0.3,0.3,0.5,0.4C555.9,70.4,556.1,70.4,556.4,70.4z"/>
				<path class="st7" d="M565.9,65.4h-2.2v6.1h-1.3v-6.1h-2.2v-1.1h5.7V65.4z"/>
				<path class="st7" d="M568.2,71.5h-1.3v-7.2h1.3V71.5z"/>
				<path class="st7" d="M576.7,67.9c0,0.5-0.1,1-0.3,1.5c-0.2,0.4-0.4,0.8-0.7,1.2c-0.3,0.3-0.7,0.6-1.2,0.8c-1,0.4-2,0.4-3,0
					c-0.4-0.2-0.8-0.4-1.2-0.8c-0.3-0.3-0.6-0.7-0.7-1.2c-0.4-0.9-0.4-2,0-2.9c0.2-0.4,0.4-0.8,0.7-1.2c0.3-0.3,0.7-0.6,1.2-0.8
					c0.5-0.2,1-0.3,1.5-0.3c0.3,0,0.7,0,1,0.1c0.3,0.1,0.6,0.2,0.9,0.4c0.3,0.2,0.5,0.3,0.7,0.6c0.2,0.2,0.4,0.5,0.5,0.7
					c0.2,0.3,0.3,0.6,0.3,0.9C576.7,67.2,576.8,67.5,576.7,67.9z M575.4,67.9c0-0.4,0-0.7-0.2-1.1c-0.1-0.3-0.3-0.6-0.5-0.8
					c-0.2-0.2-0.4-0.4-0.7-0.5c-0.6-0.2-1.3-0.2-1.9,0c-0.3,0.1-0.5,0.3-0.7,0.5c-0.2,0.2-0.4,0.5-0.5,0.8c-0.2,0.7-0.2,1.4,0,2.1
					c0.1,0.3,0.3,0.6,0.5,0.8c0.2,0.2,0.4,0.4,0.7,0.5c0.6,0.2,1.3,0.2,1.9,0c0.3-0.1,0.5-0.3,0.7-0.5c0.2-0.2,0.4-0.5,0.5-0.8
					C575.3,68.6,575.4,68.2,575.4,67.9z"/>
				<path class="st7" d="M584,64.3v7.2h-0.7c-0.1,0-0.2,0-0.3-0.1c-0.1,0-0.2-0.1-0.2-0.2l-3.8-4.8c0,0.2,0,0.4,0,0.6v4.4h-1.2v-7.2
					h0.7c0,0,0.1,0,0.1,0c0,0,0.1,0,0.1,0c0,0,0.1,0,0.1,0.1c0,0,0.1,0.1,0.1,0.1l3.8,4.8c0-0.1,0-0.2,0-0.3s0-0.2,0-0.3v-4.4H584z"
					/>
				<path class="st10" d="M237.7,19h-15.3c-2.2,0-4,1.8-4,4v15.3c0,2.2,1.8,4,4,4h5.3l2.3,2.3l2.3-2.3h5.3c2.2,0,4-1.8,4-4V23
					C241.7,20.8,239.9,19,237.7,19C237.7,19,237.7,19,237.7,19z"/>
				<path class="st7" d="M234.4,25.6c0,0.6-0.5,1.2-1.2,1.2c-0.6,0-1.2-0.5-1.2-1.2c0-0.6,0.5-1.2,1.2-1.2c0,0,0,0,0,0
					C233.9,24.5,234.4,25,234.4,25.6z"/>
				<path class="st7" d="M233.3,33.6l0.3,4.3c0,0.2,0.1,0.3,0.3,0.3c0.2,0,0.3-0.1,0.3-0.3c0,0,0,0,0,0l0.2-4.3h0.8l-0.8-4.8
					l1.6,3.1c0.1,0.1,0.2,0.2,0.4,0.1c0.1-0.1,0.2-0.2,0.1-0.4l0,0c0,0-1.2-3.1-1.4-3.7s-0.6-0.9-1.7-0.9h-0.2
					c-1.1,0-1.4,0.4-1.7,0.9c-0.3,0.6-1.4,3.7-1.4,3.7c-0.1,0.1,0,0.3,0.1,0.4c0,0,0,0,0,0c0.1,0.1,0.3,0,0.4-0.1l1.6-3.1l-0.8,4.8
					h0.8l0.2,4.3c0,0.2,0.1,0.3,0.3,0.3c0.2,0,0.3-0.1,0.3-0.3l0.2-4.3H233.3z"/>
				<path class="st7" d="M226.5,26.3c-1.6,0.1-2.8,1.4-2.8,3V32c0,0.2,0.1,0.3,0.3,0.3l0,0c0.2,0,0.3-0.1,0.3-0.3l0.3-2.9
					c0-0.1,0.1-0.2,0.2-0.2c0.1,0,0.2,0.1,0.2,0.2v8.6c0,0.3,0.2,0.5,0.5,0.5c0,0,0,0,0,0h0.1c0.2,0,0.4-0.2,0.5-0.4l0.4-4.5
					c0-0.1,0.1-0.2,0.2-0.2c0.1,0,0.2,0.1,0.2,0.2l0.5,4.5c0,0.3,0.3,0.4,0.5,0.4c0.2,0,0.4-0.2,0.4-0.5v-8.5c0-0.1,0.1-0.2,0.2-0.2
					c0.1,0,0.2,0.1,0.2,0.2c0,0,0,0,0,0l0.3,2.9c0,0.2,0.1,0.3,0.3,0.3c0.2,0,0.3-0.1,0.4-0.3c0,0,0,0,0-0.1v-2.8
					c0-1.6-1.2-2.9-2.7-2.9C226.6,26.3,226.6,26.3,226.5,26.3z"/>
				<path class="st7" d="M224.7,29c-0.1,0-0.1,0.1-0.1,0.1l0,0.2v-0.2C224.6,29.1,224.7,29,224.7,29z"/>
				<circle class="st7" cx="226.6" cy="24.5" r="1.4"/>
				<path class="st11" d="M271.7,19h-15.3c-2.2,0-4,1.8-4,4v15.3c0,2.2,1.8,4,4,4h5.3l2.3,2.3l2.3-2.3h5.3c2.2,0,4-1.8,4-4V23
					C275.7,20.8,273.9,19,271.7,19C271.7,19,271.7,19,271.7,19z"/>
				<path class="st7" d="M268.4,25.6c0,0.6-0.5,1.2-1.2,1.2c-0.6,0-1.2-0.5-1.2-1.2c0-0.6,0.5-1.2,1.2-1.2c0,0,0,0,0,0
					C267.9,24.5,268.4,25,268.4,25.6z"/>
				<path class="st7" d="M267.3,33.6l0.3,4.3c0,0.2,0.1,0.3,0.3,0.3s0.3-0.1,0.3-0.3c0,0,0,0,0,0l0.2-4.3h0.8l-0.8-4.8l1.6,3.1
					c0.1,0.1,0.2,0.2,0.4,0.1c0.1-0.1,0.2-0.2,0.1-0.4l0,0c0,0-1.2-3.1-1.4-3.7s-0.6-0.9-1.7-0.9h-0.2c-1.1,0-1.4,0.4-1.7,0.9
					c-0.3,0.6-1.4,3.7-1.4,3.7c-0.1,0.1,0,0.3,0.1,0.4c0,0,0,0,0,0c0.1,0.1,0.3,0,0.4-0.1l1.6-3.1l-0.8,4.8h0.8l0.2,4.3
					c0,0.2,0.1,0.3,0.3,0.3c0.1,0,0.3-0.1,0.3-0.3l0.2-4.3H267.3z"/>
				<path class="st7" d="M260.5,26.3c-1.6,0.1-2.8,1.4-2.8,3V32c0,0.2,0.1,0.3,0.3,0.3l0,0c0.2,0,0.3-0.1,0.3-0.3l0.3-2.9
					c0-0.1,0.1-0.2,0.2-0.2c0.1,0,0.2,0.1,0.2,0.2v8.6c0,0.3,0.2,0.5,0.5,0.5c0,0,0,0,0,0h0.1c0.2,0,0.4-0.2,0.5-0.4l0.4-4.5
					c0-0.1,0.1-0.2,0.2-0.2c0.1,0,0.2,0.1,0.2,0.2l0.5,4.5c0,0.3,0.3,0.4,0.5,0.4c0.2,0,0.4-0.2,0.4-0.5v-8.5c0-0.1,0.1-0.2,0.2-0.2
					c0.1,0,0.2,0.1,0.2,0.2c0,0,0,0,0,0l0.3,2.9c0,0.2,0.1,0.3,0.3,0.3c0.2,0,0.3-0.1,0.4-0.3c0,0,0,0,0-0.1v-2.8
					c0-1.6-1.2-2.9-2.7-2.9C260.6,26.3,260.6,26.3,260.5,26.3z"/>
				<path class="st7" d="M258.7,29c-0.1,0-0.1,0.1-0.1,0.1l0,0.2v-0.2C258.6,29.1,258.7,29,258.7,29z"/>
				<circle class="st7" cx="260.6" cy="24.5" r="1.4"/>
				<path class="st10" d="M132.7,18.8c-5.2,0-9.4,4.2-9.4,9.4c0,7.7,8.5,15.3,8.8,15.6c0.3,0.3,0.8,0.3,1.2,0
					c0.4-0.3,8.8-7.9,8.8-15.6C142.1,23,137.9,18.8,132.7,18.8z"/>
				<circle class="st12" cx="132.7" cy="28.4" r="7.7"/>
				<g id="hotel">
					<path class="st7" d="M135.7,24V23h-5.4V24h-1.6v9.8h3.3v-1.1h2.2v1.1h3.3V24H135.7z M132.4,31.1h-1.1V30h1.1V31.1z M132.4,28.9
						h-1.1v-1.1h1.1V28.9z M132.4,26.8h-1.1v-1.1h1.1V26.8z M134.6,31.1h-1.1V30h1.1L134.6,31.1z M134.6,28.9h-1.1v-1.1h1.1
						L134.6,28.9z M134.6,26.8h-1.1v-1.1h1.1L134.6,26.8z"/>
				</g>
				<path class="st7" d="M26.6,53.3v2.1h2.7v1.1h-2.7v2.9h-1.4v-7.2h4.6v1.1L26.6,53.3z"/>
				<path class="st7" d="M35.1,58.4v1.1h-4.2v-7.2h1.3v6.1H35.1z"/>
				<path class="st7" d="M37.4,59.5h-1.3v-7.2h1.3V59.5z"/>
				<path class="st7" d="M45,55.9v2.9c-0.4,0.3-0.8,0.5-1.2,0.6c-0.4,0.1-0.9,0.2-1.3,0.2c-0.5,0-1.1-0.1-1.6-0.3
					c-0.5-0.2-0.9-0.4-1.2-0.8c-0.3-0.3-0.6-0.7-0.8-1.2c-0.2-0.5-0.3-1-0.3-1.5c0-0.5,0.1-1,0.3-1.5c0.3-0.9,1-1.6,1.9-1.9
					c0.5-0.2,1-0.3,1.6-0.3c0.3,0,0.6,0,0.8,0.1c0.2,0,0.5,0.1,0.7,0.2c0.2,0.1,0.4,0.2,0.6,0.3c0.2,0.1,0.3,0.2,0.5,0.4l-0.4,0.6
					c-0.1,0.1-0.1,0.2-0.2,0.2c-0.1,0-0.2,0-0.3-0.1c-0.1-0.1-0.2-0.1-0.3-0.2c-0.1-0.1-0.2-0.1-0.4-0.2c-0.1-0.1-0.3-0.1-0.5-0.1
					c-0.2,0-0.4,0-0.6,0c-0.3,0-0.7,0.1-1,0.2c-0.3,0.1-0.5,0.3-0.7,0.5c-0.2,0.2-0.4,0.5-0.5,0.8c-0.1,0.3-0.2,0.7-0.2,1
					c0,0.4,0.1,0.8,0.2,1.1c0.1,0.3,0.3,0.6,0.5,0.8c0.2,0.2,0.5,0.4,0.8,0.5c0.6,0.2,1.2,0.2,1.7,0.1c0.2-0.1,0.4-0.1,0.6-0.2v-1.3
					h-0.9c-0.1,0-0.1,0-0.2-0.1c0,0-0.1-0.1-0.1-0.2v-0.8L45,55.9z"/>
				<path class="st7" d="M52.4,52.3v7.2h-1.3v-3.2h-3.4v3.2h-1.3v-7.2h1.3v3.1h3.4v-3.1H52.4z"/>
				<path class="st7" d="M59.1,53.4h-2.2v6.1h-1.3v-6.1h-2.2v-1.1h5.7L59.1,53.4z"/>
				<path class="st7" d="M27.7,64.3c0.4,0,0.8,0,1.2,0.1c0.3,0.1,0.6,0.2,0.8,0.4c0.2,0.2,0.4,0.4,0.5,0.6c0.1,0.3,0.2,0.5,0.1,0.8
					c0,0.2,0,0.3-0.1,0.5c-0.1,0.2-0.1,0.3-0.2,0.4c-0.1,0.1-0.2,0.3-0.4,0.4c-0.2,0.1-0.4,0.2-0.6,0.3c1,0.2,1.5,0.8,1.5,1.6
					c0,0.3-0.1,0.6-0.2,0.8c-0.1,0.3-0.3,0.5-0.5,0.7c-0.2,0.2-0.5,0.3-0.8,0.4c-0.4,0.1-0.7,0.2-1.1,0.2h-2.7v-7.2L27.7,64.3z
					 M26.6,65.3v2.1h1.1c0.4,0,0.7-0.1,1-0.2c0.2-0.2,0.4-0.5,0.4-0.8c0-0.3-0.1-0.6-0.3-0.8c-0.3-0.2-0.6-0.3-1-0.2L26.6,65.3z
					 M27.9,70.4c0.2,0,0.4,0,0.6-0.1c0.2,0,0.3-0.1,0.4-0.2c0.1-0.1,0.2-0.2,0.2-0.4c0-0.1,0.1-0.3,0.1-0.4c0-0.1,0-0.3-0.1-0.4
					c0-0.1-0.1-0.2-0.2-0.3c-0.1-0.1-0.3-0.2-0.4-0.2c-0.2-0.1-0.4-0.1-0.6-0.1h-1.4v2.1L27.9,70.4z"/>
				<path class="st7" d="M38.7,67.9c0,0.5-0.1,1-0.3,1.5c-0.2,0.4-0.4,0.8-0.7,1.2c-0.3,0.3-0.7,0.6-1.2,0.8c-1,0.4-2,0.4-3,0
					c-0.4-0.2-0.8-0.4-1.2-0.8c-0.3-0.3-0.6-0.7-0.7-1.2c-0.4-0.9-0.4-2,0-2.9c0.2-0.4,0.4-0.8,0.7-1.2c0.3-0.3,0.7-0.6,1.2-0.8
					c0.5-0.2,1-0.3,1.5-0.3c0.3,0,0.7,0,1,0.1c0.3,0.1,0.6,0.2,0.9,0.4c0.3,0.2,0.5,0.3,0.7,0.6c0.2,0.2,0.4,0.5,0.5,0.7
					c0.2,0.3,0.3,0.6,0.3,0.9C38.7,67.2,38.7,67.5,38.7,67.9z M37.3,67.9c0-0.4,0-0.7-0.2-1.1c-0.1-0.3-0.3-0.6-0.5-0.8
					c-0.2-0.2-0.4-0.4-0.7-0.5c-0.6-0.2-1.3-0.2-1.9,0c-0.3,0.1-0.5,0.3-0.7,0.5c-0.2,0.2-0.4,0.5-0.5,0.8c-0.2,0.7-0.2,1.4,0,2.1
					c0.1,0.3,0.3,0.6,0.5,0.8c0.2,0.2,0.4,0.4,0.7,0.5c0.6,0.2,1.3,0.2,1.9,0c0.3-0.1,0.5-0.3,0.7-0.5c0.2-0.2,0.4-0.5,0.5-0.8
					C37.3,68.6,37.3,68.2,37.3,67.9L37.3,67.9z"/>
				<path class="st7" d="M46.8,67.9c0,0.5-0.1,1-0.3,1.5c-0.2,0.4-0.4,0.8-0.7,1.2c-0.3,0.3-0.7,0.6-1.2,0.8c-1,0.4-2,0.4-3,0
					c-0.4-0.2-0.8-0.4-1.2-0.8c-0.3-0.3-0.6-0.7-0.7-1.2c-0.4-0.9-0.4-2,0-2.9c0.2-0.4,0.4-0.8,0.7-1.2c0.3-0.3,0.7-0.6,1.2-0.8
					c0.5-0.2,1-0.3,1.5-0.3c0.3,0,0.7,0,1,0.1c0.3,0.1,0.6,0.2,0.9,0.4c0.3,0.2,0.5,0.3,0.7,0.6c0.2,0.2,0.4,0.5,0.5,0.7
					c0.2,0.3,0.3,0.6,0.3,0.9C46.8,67.2,46.8,67.5,46.8,67.9z M45.4,67.9c0-0.4,0-0.7-0.2-1.1c-0.1-0.3-0.3-0.6-0.5-0.8
					c-0.2-0.2-0.4-0.4-0.7-0.5c-0.6-0.2-1.3-0.2-1.9,0c-0.3,0.1-0.5,0.3-0.7,0.5c-0.2,0.2-0.4,0.5-0.5,0.8c-0.2,0.7-0.2,1.4,0,2.1
					c0.1,0.3,0.3,0.6,0.5,0.8c0.2,0.2,0.4,0.4,0.7,0.5c0.6,0.2,1.3,0.2,1.9,0c0.3-0.1,0.5-0.3,0.7-0.5c0.2-0.2,0.4-0.5,0.5-0.8
					C45.4,68.6,45.4,68.2,45.4,67.9L45.4,67.9z"/>
				<path class="st7" d="M49.3,67.3h0.3c0.1,0,0.2,0,0.3-0.1c0.1,0,0.2-0.1,0.2-0.2l2-2.5c0.1-0.1,0.2-0.2,0.3-0.2
					c0.1,0,0.2-0.1,0.3-0.1h1.2l-2.4,3c-0.1,0.2-0.3,0.3-0.4,0.4c0.1,0,0.2,0.1,0.3,0.2c0.1,0.1,0.2,0.2,0.3,0.3l2.5,3.4h-1.2
					c-0.1,0-0.2,0-0.4-0.1c-0.1,0-0.1-0.1-0.2-0.2l-2-2.7c-0.1-0.1-0.1-0.1-0.2-0.2c-0.1,0-0.2-0.1-0.4-0.1h-0.4v3.2H48v-7.2h1.3
					V67.3z"/>
				<path class="st7" d="M56.2,71.5h-1.3v-7.2h1.3V71.5z"/>
				<path class="st7" d="M63.9,64.3v7.2h-0.7c-0.2,0-0.4-0.1-0.5-0.2L59,66.4c0,0.2,0,0.4,0,0.6v4.4h-1.2v-7.2h0.7c0,0,0.1,0,0.1,0
					c0,0,0.1,0,0.1,0c0,0,0.1,0,0.1,0.1c0,0,0.1,0.1,0.1,0.1l3.8,4.8c0-0.1,0-0.2,0-0.3c0-0.1,0-0.2,0-0.3v-4.4H63.9z"/>
				<path class="st7" d="M71.5,67.9v2.9c-0.4,0.3-0.8,0.5-1.2,0.6c-0.4,0.1-0.9,0.2-1.3,0.2c-0.5,0-1.1-0.1-1.6-0.3
					c-0.5-0.2-0.9-0.4-1.2-0.8c-0.3-0.3-0.6-0.7-0.8-1.2c-0.2-0.5-0.3-1-0.3-1.5c0-0.5,0.1-1,0.3-1.5c0.3-0.9,1-1.6,1.9-1.9
					c0.5-0.2,1-0.3,1.6-0.3c0.3,0,0.6,0,0.8,0.1c0.2,0,0.5,0.1,0.7,0.2c0.2,0.1,0.4,0.2,0.6,0.3c0.2,0.1,0.3,0.2,0.5,0.4l-0.4,0.6
					c-0.1,0.1-0.1,0.2-0.2,0.2c-0.1,0-0.2,0-0.3-0.1c-0.1-0.1-0.2-0.1-0.3-0.2c-0.1-0.1-0.2-0.1-0.4-0.2c-0.1-0.1-0.3-0.1-0.5-0.1
					c-0.2,0-0.4,0-0.6,0c-0.3,0-0.7,0.1-1,0.2c-0.3,0.1-0.5,0.3-0.7,0.5c-0.2,0.2-0.4,0.5-0.5,0.8c-0.1,0.3-0.2,0.7-0.2,1.1
					c0,0.4,0.1,0.8,0.2,1.1c0.1,0.3,0.3,0.6,0.5,0.8c0.2,0.2,0.5,0.4,0.8,0.5c0.6,0.2,1.2,0.2,1.7,0.1c0.2-0.1,0.4-0.1,0.6-0.2v-1.3
					h-0.9c-0.1,0-0.1,0-0.2-0.1c0,0-0.1-0.1-0.1-0.2v-0.8L71.5,67.9z"/>
				<path class="st7" d="M76.6,65.6c0,0.1-0.1,0.1-0.1,0.2c0,0-0.1,0.1-0.2,0c-0.1,0-0.2,0-0.2-0.1c-0.1-0.1-0.2-0.1-0.3-0.2
					c-0.1-0.1-0.3-0.1-0.4-0.2c-0.2-0.1-0.4-0.1-0.5-0.1c-0.2,0-0.3,0-0.5,0.1c-0.1,0-0.2,0.1-0.4,0.2c-0.1,0.1-0.2,0.2-0.2,0.3
					c0,0.1-0.1,0.2-0.1,0.4c0,0.2,0,0.3,0.1,0.4c0.1,0.1,0.2,0.2,0.4,0.3c0.2,0.1,0.4,0.2,0.5,0.2c0.2,0.1,0.4,0.1,0.6,0.2
					c0.2,0.1,0.4,0.2,0.6,0.2c0.2,0.1,0.4,0.2,0.5,0.4c0.2,0.2,0.3,0.3,0.4,0.5c0.1,0.2,0.2,0.5,0.1,0.8c0,0.3-0.1,0.6-0.2,0.9
					c-0.1,0.3-0.3,0.5-0.5,0.7c-0.2,0.2-0.5,0.4-0.8,0.5c-0.3,0.1-0.7,0.2-1.1,0.2c-0.2,0-0.5,0-0.7-0.1c-0.2,0-0.4-0.1-0.6-0.2
					c-0.2-0.1-0.4-0.2-0.6-0.3c-0.2-0.1-0.3-0.2-0.5-0.4l0.4-0.6c0,0,0.1-0.1,0.1-0.1c0.1,0,0.1,0,0.2,0c0.1,0,0.2,0,0.3,0.1
					c0.1,0.1,0.2,0.1,0.3,0.2c0.1,0.1,0.3,0.2,0.5,0.2c0.2,0.1,0.4,0.1,0.6,0.1c0.3,0,0.6-0.1,0.9-0.3c0.2-0.2,0.3-0.5,0.3-0.8
					c0-0.2,0-0.3-0.1-0.5c-0.1-0.1-0.2-0.2-0.4-0.3c-0.2-0.1-0.4-0.2-0.5-0.2c-0.2-0.1-0.4-0.1-0.6-0.2c-0.2-0.1-0.4-0.1-0.6-0.2
					c-0.2-0.1-0.4-0.2-0.5-0.4c-0.2-0.2-0.3-0.4-0.4-0.6c-0.1-0.3-0.2-0.5-0.1-0.8c0-0.5,0.2-1.1,0.6-1.4c0.2-0.2,0.5-0.4,0.7-0.5
					c0.3-0.1,0.7-0.2,1-0.2c0.4,0,0.8,0.1,1.2,0.2c0.3,0.1,0.7,0.3,0.9,0.6L76.6,65.6z"/>
				<path class="st7" d="M46.2,20l-0.3-0.3c0,0-1.5-0.4-3.9,1.7c-0.8,0.9-10.3,10.7-11,11.8c-1.1,1.3-2,2.8-2.6,4.4l0.1,0.5L46.2,20
					z"/>
				<path class="st13" d="M42.6,21.7c0,0,1.2-0.3,1.7,0.4l0.4-0.4C43.8,21,42.6,21.7,42.6,21.7z"/>
				<polygon class="st14" points="30.2,35.9 26.1,35.2 24.8,35.7 28.7,37.5 				"/>
				<path class="st15" d="M31.8,24.1c-0.2,0.2-0.6,0.2-0.8,0l0,0c-0.2-0.2-0.2-0.6,0-0.8c0,0,0,0,0,0l0.7-0.8c0.2-0.2,0.6-0.2,0.8,0
					c0,0,0,0,0,0l0,0c0.2,0.2,0.2,0.6,0,0.8L31.8,24.1z"/>
				<path class="st15" d="M34.6,25.3c-0.2,0.2-0.6,0.2-0.8,0l0,0c-0.2-0.2-0.2-0.6,0-0.8l0.7-0.8c0.2-0.2,0.6-0.2,0.8,0l0,0
					c0.2,0.2,0.2,0.6,0,0.8L34.6,25.3z"/>
				<polygon class="st15" points="31.4,35.1 31,35.1 28.7,37.5 28.4,37.8 28.3,38.3 				"/>
				<polygon class="st14" points="38,25.6 28.4,22.6 25.7,23.3 33.3,27.6 34.9,28.9 				"/>
				<path class="st16" d="M46.2,20l0.3,0.3c0,0,0.4,1.5-1.6,4C44,25.1,34.3,34.7,33.3,35.5c-1.3,1.1-2.8,2-4.4,2.7l-0.5-0.1L46.2,20
					z"/>
				<path class="st17" d="M44.6,23.7c0,0,0.3-1.2-0.4-1.7l0.4-0.4C45.3,22.4,44.6,23.7,44.6,23.7z"/>
				<polygon class="st14" points="30.6,36.3 31.4,40.4 30.9,41.7 29.1,37.9 				"/>
				<path class="st15" d="M42.4,34.5c-0.2,0.2-0.2,0.6,0,0.8c0,0,0,0,0,0l0,0c0.2,0.2,0.6,0.2,0.8,0c0,0,0,0,0,0l0.7-0.8
					c0.2-0.2,0.2-0.6,0-0.8l0,0c-0.2-0.2-0.6-0.2-0.8,0c0,0,0,0,0,0L42.4,34.5z"/>
				<path class="st15" d="M41.2,31.7c-0.2,0.2-0.2,0.6,0,0.8l0,0c0.2,0.2,0.6,0.2,0.8,0l0.7-0.8c0.2-0.2,0.2-0.6,0-0.8l0,0
					c-0.2-0.2-0.6-0.2-0.8,0L41.2,31.7z"/>
				<polygon class="st15" points="31.4,35.1 31.4,35.5 29.1,37.9 28.8,38.1 28.3,38.3 				"/>
				<polygon class="st14" points="40.8,28.3 43.9,37.9 43.3,40.6 38.9,33 37.5,31.5 				"/>
				<path class="st18" d="M527.8,37.3v3.3c0,1.5-4.3,2.8-9.6,2.8s-9.6-1.2-9.6-2.8v-3.3H527.8z"/>
				<path class="st19" d="M518.1,40.8c-5.3,0-9.6-1.6-9.6-3.5s4.3-3.5,9.6-3.5s9.6,1.6,9.6,3.5S523.4,40.8,518.1,40.8z"/>
				<path class="st20" d="M518,28.9c-0.3,0-0.6,0-0.9,0c-4.8,0-8.6-3.8-8.6-8.6c0-0.6,0.1-1.3,0.2-1.9c0.3,0,0.6,0,0.9,0
					c4.8,0,8.6,3.8,8.6,8.6C518.2,27.6,518.2,28.2,518,28.9L518,28.9z"/>
				<path class="st21" d="M518,28.9c0.4-1.7,0.3-3.4-0.4-5c-0.9,1.4-1.3,2.9-1.3,4.5c0,0.2,0,0.3,0,0.5c0.2,0,0.5,0,0.7,0
					C517.4,28.9,517.7,28.9,518,28.9z"/>
				<path class="st22" d="M527.2,18.4c1.1,4.6-1.9,9.3-6.5,10.3c-0.6,0.1-1.3,0.2-1.9,0.2c-0.3,0-0.6,0-0.9,0
					c-1.1-4.6,1.9-9.3,6.5-10.3c0.6-0.1,1.3-0.2,1.9-0.2C526.6,18.4,526.9,18.4,527.2,18.4L527.2,18.4z"/>
				<path class="st23" d="M523.1,23.8l-4.5,5.3v8c0,0.3-0.2,0.5-0.5,0.5c-0.3,0-0.5-0.2-0.5-0.5v-8l-4.8-5.3c-0.2-0.2-0.2-0.5,0-0.7
					s0.5-0.2,0.7,0l4.6,5l4.3-5c0.2-0.2,0.5-0.2,0.7,0C523.3,23.2,523.3,23.5,523.1,23.8L523.1,23.8z"/>
				<path class="st18" d="M516.1,37.8c0.3-1.1,1.5-1.7,2.6-1.4c0.7,0.2,1.2,0.7,1.4,1.4C518.8,38.4,517.4,38.4,516.1,37.8z"/>
				<path class="st11" d="M323.6,18.8c-5.2,0-9.4,4.2-9.4,9.4c0,7.7,8.5,15.3,8.8,15.6c0.3,0.3,0.8,0.3,1.2,0
					c0.4-0.3,8.8-7.9,8.8-15.6C333,23,328.8,18.8,323.6,18.8z"/>
				<circle class="st12" cx="323.6" cy="28.4" r="7.7"/>
				<path id="Fill-1" class="st7" d="M323.5,22.3c1.9-0.1,3.6,1.4,3.7,3.3c0,0.6-0.1,1.2-0.3,1.7l-1.6,3.1h-3.7l-1.6-3.1
					c-0.8-1.8,0-3.9,1.7-4.7C322.3,22.4,322.9,22.3,323.5,22.3"/>
				<g id="Group-5">
					<defs>
						<filter id="Adobe_OpacityMaskFilter" filterUnits="userSpaceOnUse" x="319.4" y="22" width="8.1" height="8.6">
							<feColorMatrix  type="matrix" values="1 0 0 0 0  0 1 0 0 0  0 0 1 0 0  0 0 0 1 0"/>
						</filter>
					</defs>
					<mask maskUnits="userSpaceOnUse" x="319.4" y="22" width="8.1" height="8.6" id="mask_1_">
						<g id="mask-2_1_" class="st24">
							<polygon id="path-1_1_" class="st7" points="319.4,22 319.4,30.6 327.6,30.6 327.6,22 							"/>
						</g>
					</mask>
					<g class="st25">
						<path id="Fill-3" class="st26" d="M321.8,30.1h3.4l1.5-2.9c0.5-0.9,0.4-2-0.1-2.9c-1.1-1.7-3.4-2.2-5.1-1.1
							c-0.4,0.3-0.8,0.6-1.1,1.1c-0.6,0.9-0.6,2-0.1,2.9L321.8,30.1z M325.5,30.6h-4.1l-1.6-3.2c-0.6-1.1-0.5-2.4,0.1-3.5
							c1.3-2,3.9-2.5,5.8-1.2c0.5,0.3,0.9,0.7,1.2,1.2c0.7,1.1,0.7,2.4,0.1,3.5L325.5,30.6z"/>
					</g>
				</g>
				<path id="Fill-8" class="st26" d="M323,30.1h1l0.5-2.9c0.3-1.5,0.1-3.1-0.6-4.4c-0.1-0.2-0.4-0.3-0.6-0.2
					c-0.1,0-0.2,0.1-0.2,0.2c-0.7,1.3-0.9,2.9-0.6,4.4L323,30.1z M324.4,30.6h-1.9l-0.6-3.3c-0.3-1.8,0-3.9,0.7-4.9
					c0.3-0.5,0.9-0.6,1.4-0.3c0.1,0.1,0.2,0.2,0.3,0.3c0.8,0.9,1.1,3,0.7,4.9L324.4,30.6z"/>
				<path id="Fill-18" class="st7" d="M324.3,34.5h-1.6c-0.3,0-0.5-0.2-0.5-0.5c0,0,0,0,0,0v-1.9h2.7V34
					C324.8,34.3,324.6,34.5,324.3,34.5"/>
				<polygon class="st7" points="321.8,30.5 325.2,30.5 324.7,32 322.3,32 				"/>
				<path class="st26" d="M325.1,30.3l-0.5,1.5h-2.3l-0.5-1.5l-0.5,0.2l0.5,1.7V34c0,0.4,0.4,0.8,0.8,0.8h1.6c0.4,0,0.8-0.4,0.8-0.8
					v-1.9l0.5-1.7L325.1,30.3z M324.5,34c0,0.1-0.1,0.3-0.3,0.3h-1.6c-0.1,0-0.3-0.1-0.3-0.3v-1.6h2.1V34z"/>
			</g>
		</g>
	</g>
</g>
<g>
	<path class="st7" d="M515.3,55.8v2.9c-0.4,0.3-0.8,0.5-1.2,0.6s-0.9,0.2-1.3,0.2c-0.6,0-1.1-0.1-1.6-0.3c-0.5-0.2-0.9-0.4-1.2-0.8
		c-0.3-0.3-0.6-0.7-0.8-1.2c-0.2-0.5-0.3-0.9-0.3-1.5c0-0.5,0.1-1,0.3-1.5c0.2-0.5,0.4-0.8,0.8-1.2c0.3-0.3,0.7-0.6,1.2-0.8
		c0.5-0.2,1-0.3,1.6-0.3c0.3,0,0.6,0,0.8,0.1c0.3,0,0.5,0.1,0.7,0.2c0.2,0.1,0.4,0.2,0.6,0.3c0.2,0.1,0.3,0.2,0.5,0.4l-0.4,0.6
		c-0.1,0.1-0.1,0.2-0.2,0.2c-0.1,0-0.2,0-0.3-0.1c-0.1-0.1-0.2-0.1-0.3-0.2s-0.2-0.1-0.4-0.2c-0.1,0-0.3-0.1-0.5-0.1
		c-0.2,0-0.4,0-0.6,0c-0.4,0-0.7,0.1-1,0.2c-0.3,0.1-0.5,0.3-0.7,0.5c-0.2,0.2-0.4,0.5-0.5,0.8s-0.2,0.7-0.2,1
		c0,0.4,0.1,0.8,0.2,1.1c0.1,0.3,0.3,0.6,0.5,0.8c0.2,0.2,0.5,0.4,0.8,0.5c0.3,0.1,0.6,0.2,1,0.2c0.3,0,0.5,0,0.7-0.1
		s0.4-0.1,0.6-0.2v-1.3h-0.9c-0.1,0-0.2,0-0.2-0.1c0,0-0.1-0.1-0.1-0.2v-0.8H515.3z"/>
	<path class="st7" d="M522.2,59.5H521c-0.2,0-0.4-0.1-0.5-0.3l-1.5-2.3c-0.1-0.1-0.1-0.1-0.2-0.2c-0.1,0-0.2-0.1-0.3-0.1h-0.6v2.8
		h-1.3v-7.2h2.2c0.5,0,0.9,0.1,1.3,0.2s0.6,0.2,0.9,0.4c0.2,0.2,0.4,0.4,0.5,0.7s0.2,0.5,0.2,0.8c0,0.2,0,0.5-0.1,0.7
		s-0.2,0.4-0.3,0.6c-0.1,0.2-0.3,0.3-0.5,0.5c-0.2,0.1-0.4,0.2-0.7,0.3c0.1,0,0.2,0.1,0.2,0.2c0.1,0.1,0.1,0.1,0.2,0.2L522.2,59.5z
		 M518.8,55.7c0.3,0,0.5,0,0.7-0.1s0.3-0.2,0.5-0.3c0.1-0.1,0.2-0.2,0.3-0.4c0.1-0.2,0.1-0.3,0.1-0.5c0-0.4-0.1-0.6-0.4-0.8
		c-0.2-0.2-0.6-0.3-1.1-0.3h-0.9v2.4H518.8z"/>
	<path class="st7" d="M524.4,53.3v2h2.5v1h-2.5v2h3.2v1.1H523v-7.2h4.6v1.1H524.4z"/>
	<path class="st7" d="M530.1,53.3v2h2.5v1h-2.5v2h3.2v1.1h-4.6v-7.2h4.6v1.1H530.1z"/>
	<path class="st7" d="M540.6,52.2v7.2h-0.7c-0.1,0-0.2,0-0.3-0.1s-0.1-0.1-0.2-0.2l-3.8-4.8c0,0.2,0,0.4,0,0.6v4.4h-1.2v-7.2h0.7
		c0.1,0,0.1,0,0.1,0c0,0,0.1,0,0.1,0c0,0,0.1,0,0.1,0.1c0,0,0.1,0.1,0.1,0.1l3.8,4.8c0-0.1,0-0.2,0-0.3c0-0.1,0-0.2,0-0.3v-4.4
		H540.6z"/>
</g>
</svg>
