<?xml version="1.0" encoding="UTF-8" standalone="no"?>
<svg
   xmlns:dc="http://purl.org/dc/elements/1.1/"
   xmlns:cc="http://creativecommons.org/ns#"
   xmlns:rdf="http://www.w3.org/1999/02/22-rdf-syntax-ns#"
   xmlns:svg="http://www.w3.org/2000/svg"
   xmlns="http://www.w3.org/2000/svg"
   xmlns:xlink="http://www.w3.org/1999/xlink"
   id="svg49"
   version="1.1"
   viewBox="0 0 21.465401 28.746429"
   height="28.746429"
   width="21.465401">
  <metadata
     id="metadata53">
    <rdf:RDF>
      <cc:Work
         rdf:about="">
        <dc:format>image/svg+xml</dc:format>
        <dc:type
           rdf:resource="http://purl.org/dc/dcmitype/StillImage" />
      </cc:Work>
    </rdf:RDF>
  </metadata>
  <!-- Generator: Sketch 59 (86127) - https://sketch.com -->
  <title
     id="title2">Rail</title>
  <desc
     id="desc4">Created with Sketch.</desc>
  <defs
     id="defs9">
    <polygon
       points="0,7.75 3.5952206,7.75 7.1904412,7.75 7.1904412,0.57317708 1.7538565e-20,0.57317708 0,0.57317708 "
       id="path-1" />
    <polygon
       points="7.2289412,7.6169583 0.17231177,7.6169583 0.17231177,0.57317708 7.2289412,0.57317708 "
       id="path-3" />
    <polygon
       points="0.28775139,0.96229167 0.28775139,9.4352375 8.3944839,9.4352375 8.3944839,0.96229167 "
       id="path-5" />
  </defs>
  <g
     transform="translate(3.2352953e-4,-0.29179617)"
     style="fill:none;fill-rule:evenodd;stroke:none;stroke-width:1"
     id="g47">
    <g
       transform="translate(0,-1)"
       id="Rail">
      <g
         id="Page-1">
        <path
           style="fill:#ffffff"
           id="Fill-1"
           d="M 0.64757647,29.391875 6.5435765,23.507042 Z" />
        <g
           transform="translate(0,0.329892)"
           id="Group-43">
          <g
             transform="translate(0,21.958333)"
             id="Group-4">
            <mask
               fill="white"
               id="mask-2">
              <use
                 height="100%"
                 width="100%"
                 y="0"
                 x="0"
                 id="use12"
                 xlink:href="#path-1" />
            </mask>
            <g
               id="Clip-3" />
            <path
               style="fill:#4a4a4a"
               mask="url(#mask-2)"
               id="Fill-2"
               d="m 0.64705882,7.75 c -0.16564705,0 -0.33129411,-0.063292 -0.45811764,-0.1885833 -0.25235294,-0.2531667 -0.25235294,-0.6613334 0,-0.9145 L 6.0862353,0.76208333 c 0.2523529,-0.251875 0.6612941,-0.251875 0.9149412,0 0.2523529,0.25187497 0.2523529,0.66133337 0,0.91320837 l -5.896,5.886125 C 0.97835294,7.6867083 0.81270588,7.75 0.64705882,7.75" />
          </g>
          <line
             style="fill:#ffffff"
             id="Fill-5"
             y2="28.929976"
             x2="20.817564"
             y1="23.176891"
             x1="15.054859" />
          <g
             transform="translate(14.235294,21.958333)"
             id="Group-9">
            <mask
               fill="white"
               id="mask-4">
              <use
                 height="100%"
                 width="100%"
                 y="0"
                 x="0"
                 id="use19"
                 xlink:href="#path-3" />
            </mask>
            <g
               id="Clip-8" />
            <path
               style="fill:#4a4a4a"
               mask="url(#mask-4)"
               id="Fill-7"
               d="m 6.5824,7.6169583 c -0.1656471,0 -0.3312941,-0.063292 -0.4581177,-0.1885833 L 0.36157647,1.6752917 c -0.25235294,-0.251875 -0.25235294,-0.6613334 0,-0.91320837 0.25364706,-0.251875 0.66258823,-0.251875 0.91494113,0 l 5.764,5.75179167 c 0.252353,0.2531667 0.252353,0.6613333 0,0.9145 C 6.9136941,7.5536667 6.7480471,7.6169583 6.5824,7.6169583" />
          </g>
          <line
             style="fill:#ffffff"
             id="Fill-10"
             y2="24.991941"
             x2="16.873871"
             y1="24.991941"
             x1="4.7246943" />
          <path
             style="fill:#4a4a4a"
             id="Fill-12"
             d="M 16.873482,25.637775 H 4.7243059 c -0.3571765,0 -0.6470588,-0.289333 -0.6470588,-0.645833 0,-0.3565 0.2898823,-0.645834 0.6470588,-0.645834 H 16.873482 c 0.357177,0 0.647059,0.289334 0.647059,0.645834 0,0.3565 -0.289882,0.645833 -0.647059,0.645833" />
          <line
             style="fill:#ffffff"
             id="Fill-14"
             y2="27.16853"
             x2="18.933718"
             y1="27.16853"
             x1="2.6653647" />
          <path
             style="fill:#4a4a4a"
             id="Fill-16"
             d="M 18.933459,27.814363 H 2.6651059 c -0.3571765,0 -0.6470588,-0.289334 -0.6470588,-0.645834 0,-0.3565 0.2898823,-0.645833 0.6470588,-0.645833 H 18.933459 c 0.357176,0 0.647059,0.289333 0.647059,0.645833 0,0.3565 -0.289883,0.645834 -0.647059,0.645834" />
          <path
             style="fill:#f8e71c"
             id="Fill-18"
             d="M 18.098106,22.855783 H 3.8679882 c -1.1077647,0 -2.0058823,-0.897708 -2.0058823,-2.003375 v -8.751041 c 0,-1.106959 0.8981176,-2.003375 2.0058823,-2.003375 H 18.098106 c 1.107765,0 2.007176,0.896416 2.007176,2.003375 v 8.751041 c 0,1.105667 -0.899411,2.003375 -2.007176,2.003375" />
          <path
             style="fill:#272321"
             id="Fill-20"
             d="m 3.8678588,10.743954 c -0.7492941,0 -1.3588235,0.608375 -1.3588235,1.357542 v 8.751041 c 0,0.747875 0.6095294,1.357542 1.3588235,1.357542 H 18.097977 c 0.749294,0 1.360117,-0.609667 1.360117,-1.357542 v -8.751041 c 0,-0.749167 -0.610823,-1.357542 -1.360117,-1.357542 z M 18.097977,23.501746 H 3.8678588 c -1.4623529,0 -2.6529412,-1.188334 -2.6529412,-2.649209 v -8.751041 c 0,-1.460875 1.1905883,-2.6492085 2.6529412,-2.6492085 H 18.097977 c 1.463646,0 2.654235,1.1883335 2.654235,2.6492085 v 8.751041 c 0,1.460875 -1.190589,2.649209 -2.654235,2.649209 z" />
          <path
             style="fill:#f25c6f"
             id="Fill-22"
             d="m 20.104894,18.559571 v 2.292708 c 0,1.105667 -0.898118,2.003375 -2.007176,2.003375 H 3.8676 c -1.1077647,0 -2.0058824,-0.897708 -2.0058824,-2.003375 v -2.292708" />
          <path
             style="fill:#000000"
             id="Fill-24"
             d="M 18.098106,23.501617 H 3.8679882 c -1.4623529,0 -2.6529411,-1.188334 -2.6529411,-2.649209 V 18.5597 h 1.2941176 v 2.292708 c 0,0.747875 0.6095294,1.357542 1.3588235,1.357542 H 18.098106 c 0.749294,0 1.360117,-0.609667 1.360117,-1.357542 V 18.5597 h 1.294118 v 2.292708 c 0,1.460875 -1.190588,2.649209 -2.654235,2.649209" />
          <path
             style="fill:#ffffff"
             id="Fill-26"
             d="M 13.214753,8.7894042 H 8.4084 L 7.4313412,3.3631125 c -0.164353,-0.9093333 0.4723529,-1.755375 1.32,-1.755375 h 4.1204708 c 0.847647,0 1.484353,0.8460417 1.32,1.755375 z" />
          <g
             transform="translate(6.470588)"
             id="Group-30">
            <mask
               fill="white"
               id="mask-6">
              <use
                 height="100%"
                 width="100%"
                 y="0"
                 x="0"
                 id="use34"
                 xlink:href="#path-5" />
            </mask>
            <g
               id="Clip-29" />
            <path
               style="fill:#000000"
               mask="url(#mask-6)"
               id="Fill-28"
               d="M 2.4788824,8.1435708 H 6.2033529 L 7.0846471,3.2481542 C 7.1338235,2.9769042 7.0626471,2.6979042 6.897,2.4989875 6.8193529,2.4072792 6.6537059,2.2535708 6.4013529,2.2535708 H 2.2808824 c -0.252353,0 -0.4192942,0.1537084 -0.4956471,0.2454167 C 1.6195882,2.6979042 1.5484118,2.9769042 1.5975882,3.2481542 Z M 7.2852353,9.4352375 H 1.397 L 0.32417647,3.4767792 C 0.20641176,2.8244875 0.37723529,2.1670292 0.79264706,1.6710292 1.1692353,1.2202375 1.7114706,0.96190417 2.2808824,0.96190417 h 4.1204705 c 0.5694118,0 1.1116471,0.25833333 1.4882353,0.70912503 0.4154118,0.496 0.5862353,1.1534583 0.4684706,1.8070416 z" />
          </g>
          <path
             style="fill:#f25c6f"
             id="Fill-31"
             d="m 16.873482,10.098121 c 0,3.24725 -2.637411,5.878375 -5.890823,5.878375 -3.2521178,0 -5.8895296,-2.631125 -5.8895296,-5.878375 0,-3.2472502 2.6374118,-5.8796668 5.8895296,-5.8796668 3.253412,0 5.890823,2.6324166 5.890823,5.8796668" />
          <path
             style="fill:#000000"
             id="Fill-33"
             d="m 10.982918,4.8645458 c -2.8897651,0 -5.2424709,2.3469584 -5.2424709,5.2338332 0,2.885584 2.3527058,5.232542 5.2424709,5.232542 2.891059,0 5.243764,-2.346958 5.243764,-5.232542 0,-2.8868748 -2.352705,-5.2338332 -5.243764,-5.2338332 m 0,11.7580422 c -3.604118,0 -6.5365886,-2.926917 -6.5365886,-6.524209 0,-3.5985832 2.9324706,-6.5254998 6.5365886,-6.5254998 3.604117,0 6.537882,2.9269166 6.537882,6.5254998 0,3.597292 -2.933765,6.524209 -6.537882,6.524209" />
          <line
             style="fill:#ffffff"
             id="Fill-39"
             y2="18.19558"
             x2="20.104765"
             y1="18.19558"
             x1="1.8615882" />
          <path
             style="fill:#272321"
             id="Fill-41"
             d="M 20.104894,18.841412 H 1.8617176 c -0.3584705,0 -0.6470588,-0.289333 -0.6470588,-0.645833 0,-0.3565 0.2885883,-0.645833 0.6470588,-0.645833 H 20.104894 c 0.357177,0 0.647059,0.289333 0.647059,0.645833 0,0.3565 -0.289882,0.645833 -0.647059,0.645833" />
        </g>
      </g>
    </g>
  </g>
</svg>
